<mxfile host="65bd71144e" modified="2021-03-20T13:07:19.559Z" agent="5.0 (Macintosh; Intel Mac OS X 10_15_7) AppleWebKit/537.36 (KHTML, like Gecko) Code/1.53.2 Chrome/87.0.4280.141 Electron/11.2.1 Safari/537.36" etag="NgoNZLWjNtdHzBu2mfZe" version="14.4.9" type="embed" pages="2">
    <diagram id="OHrhAt2xwt16lTn6crxG" name="ページ1">
        <mxGraphModel dx="2552" dy="635" grid="1" gridSize="10" guides="1" tooltips="1" connect="1" arrows="1" fold="1" page="1" pageScale="1" pageWidth="827" pageHeight="1169" math="0" shadow="0">
            <root>
                <mxCell id="0"/>
                <mxCell id="1" parent="0"/>
                <mxCell id="10" value="" style="edgeStyle=orthogonalEdgeStyle;rounded=0;orthogonalLoop=1;jettySize=auto;html=1;" parent="1" source="2" target="9" edge="1">
                    <mxGeometry relative="1" as="geometry"/>
                </mxCell>
                <mxCell id="18" value="&lt;font face=&quot;Comic Sans MS&quot; style=&quot;font-size: 14px&quot;&gt;push を検知&lt;/font&gt;" style="edgeLabel;html=1;align=center;verticalAlign=middle;resizable=0;points=[];" parent="10" vertex="1" connectable="0">
                    <mxGeometry x="-0.05" y="1" relative="1" as="geometry">
                        <mxPoint as="offset"/>
                    </mxGeometry>
                </mxCell>
                <mxCell id="2" value="" style="dashed=0;outlineConnect=0;html=1;align=center;labelPosition=center;verticalLabelPosition=bottom;verticalAlign=top;shape=mxgraph.weblogos.github" parent="1" vertex="1">
                    <mxGeometry x="-625" y="120" width="110" height="100" as="geometry"/>
                </mxCell>
                <mxCell id="3" value="" style="fontColor=#0066CC;verticalAlign=top;verticalLabelPosition=bottom;labelPosition=center;align=center;html=1;outlineConnect=0;fillColor=#CCCCCC;strokeColor=#6881B3;gradientColor=none;gradientDirection=north;strokeWidth=2;shape=mxgraph.networks.pc;" parent="1" vertex="1">
                    <mxGeometry x="-825" y="230" width="100" height="70" as="geometry"/>
                </mxCell>
                <mxCell id="6" value="&lt;font face=&quot;Comic Sans MS&quot; style=&quot;font-size: 14px&quot;&gt;Push&lt;/font&gt;" style="edgeStyle=orthogonalEdgeStyle;rounded=0;orthogonalLoop=1;jettySize=auto;html=1;entryX=-0.036;entryY=0.51;entryDx=0;entryDy=0;entryPerimeter=0;" parent="1" source="4" target="2" edge="1">
                    <mxGeometry relative="1" as="geometry">
                        <Array as="points">
                            <mxPoint x="-715" y="171"/>
                            <mxPoint x="-715" y="171"/>
                        </Array>
                    </mxGeometry>
                </mxCell>
                <mxCell id="4" value="" style="verticalLabelPosition=bottom;html=1;verticalAlign=top;align=center;strokeColor=none;fillColor=#00BEF2;shape=mxgraph.azure.cloud_services_configuration_file;pointerEvents=1;" parent="1" vertex="1">
                    <mxGeometry x="-815" y="120" width="80" height="90" as="geometry"/>
                </mxCell>
                <mxCell id="8" value="&lt;font face=&quot;Comic Sans MS&quot; style=&quot;font-size: 24px&quot;&gt;GitHub&lt;/font&gt;" style="text;html=1;align=center;verticalAlign=middle;resizable=0;points=[];autosize=1;" parent="1" vertex="1">
                    <mxGeometry x="-620" y="230" width="100" height="20" as="geometry"/>
                </mxCell>
                <mxCell id="12" value="" style="edgeStyle=orthogonalEdgeStyle;rounded=0;orthogonalLoop=1;jettySize=auto;html=1;" parent="1" source="9" target="11" edge="1">
                    <mxGeometry relative="1" as="geometry"/>
                </mxCell>
                <mxCell id="16" value="&lt;font face=&quot;Comic Sans MS&quot; style=&quot;font-size: 14px&quot;&gt;CI起動&lt;/font&gt;" style="edgeLabel;html=1;align=center;verticalAlign=middle;resizable=0;points=[];" parent="12" vertex="1" connectable="0">
                    <mxGeometry x="-0.3052" y="1" relative="1" as="geometry">
                        <mxPoint y="1" as="offset"/>
                    </mxGeometry>
                </mxCell>
                <mxCell id="9" value="" style="shape=image;verticalLabelPosition=bottom;labelBackgroundColor=#ffffff;verticalAlign=top;aspect=fixed;imageAspect=0;image=data:image/png,iVBORw0KGgoAAAANSUhEUgAAAPwAAAC4CAYAAADHYoEdAAA9mElEQVR42u29eXBc133n+zm3VzS6se8LAYIguK8ixUUbtdiSLMW2YtnxFjuOx9lmMskkM29eTdWrSb2XTE3mZeYllXGcTGY8cSQv8SpHlmRtlEhRoijuJLiCIHaA2Ndu9HbveX/8bqMBEqRAEpRE6XyrmiiA3feevvd+z2///ZTWWmNgYPCRgGUugYGBIbyBgYEhvIGBgSG8gYGBIbyBgYEhvIGBgSG8gYGBIbyBgYEhvIGBgSG8gYGBIbyBgYEhvIGBIbyBgYEhvIGBgSG8gYGBIbyBgYEhvIGBwfsJr7kENwcN2I68NGAp8Fry08DAEP52J7iGeBomEzARh7EEjMZgOAYJW1MQVBSHoCgH8oIQDkDYL5uAgYEh/G0ixeMp6JuE9lE4eQkOdMH5QUg64Dhga9BaYSnwWPIqDcGGKthWC6vLoCoP8oNG+hu8f1CmieW1kbShexx2t8JPmzVnBhQpR0irFrBRaA0oKA9rHmlSPLpCyG+Ib2AI/wGC7cBIDPZ3wk9PwautIsm9HiG61i6hEc+nUlmVP0N0pdwXogHYDjQUwWMr4fGV0FQCAaNjGRjCv79IO9A6DD8+Cc+ega4JscEV4Gh5Bb1im+f6IeSDHJ+8J56GaBJiKZhyfzoaPCp7bK8FO+vgq5vh3qXyWQMDY8O/H5Jdw9lB+J8H4aXz4pzzWSKxbQ05fijPhU1VsLMeqiPg84DfI6ROOZCwYTIOzf3wVidcHIHhqEh7r3usfe0wHofpNHx8uWwaBgZGwr+H0Ag5//Nr8HobJNJiZztaiLqkAO5vgEeaYEmheOKvppLbDkwmhejvdMMPT4iTbzKZVf8V0FgEv7cDHl1hJL2BIfx7iqEo/Oc9mp82K9KOEFNrKAzB4ys0n16tWFMh6vz1ONySNvRNwC/Pwz+fhrNDkLazxG8ohn97DzzUKJqCgYEh/C3GZAL+9yH41gGxwTNkrC+EX9+k+cpmtShkPNQN3zkCr7SIfS8eQFhfCf/3x2BjZfbcBgaLDZMO4krgF1vge8ezZNcaVpXC7++AX9+kFk3ybqmBP7obPr1GyJ7Zbo/3wbcPaQaj5n4YGMLfUpwdgB+dgEuToqprLUkyX70DPrHySjs9loLOMTg/BL0TYutfD5YWwde3wt31zBjzCnitVfH8uewmYGCw2PjIe+mnU/B2J5wayBIt5IPPrhNH2uXe80tT8FILvNKi6ZuEpmLFrmWwYwlU5mXDb+9K+kL47Tvh0gScGxKn4FQSXrkADywTB6GBgSH8IkIjZHvh/CxVHkmF/fwGKAjOfX/7KHxzPzx3FqaSCq3h3CC8fEE+89l1cF+DxOc976I7eSzYWiPn+f/2CdktJJT3Ugv8xh0m/97AqPSLinhKnGhnBt1qNw35Afj1zVARnvveRFqI+LNTsjlYs7LoErZI5v/zl/Dne+BgN0wkJJx3LQS98LHlkoSjAK1gbBre6oCOUfNwGhjCLyrG43CgE5LpbPrr3fUirS+X0GNxaBmalTKLZNlZlqTcBrzi6X/qCPzpbvjHI3BmQByCV4NSUJ0PDzdBcSiblnt+SF4GBkalX2TCtwxByhaCO47Y7bn+K98bS8LAlBASJLvukRUiyQ91SXlsxn4/2gtto+IbeHKtZscSRXnkKjfAEvu/vhCGYkL60WnomZDNwsTlDQzhFwG2I6QciwNuNl1JSIpb5kuq0cxV0S0L7qwRO/z1Vsm5P35JcuV9HpH2e9vg3KDi0SZ4cj0sL74ym04BhTmwqgyO9YmWkbIll38kBhUR85AaGJX+puFosZOTtpAu7cDqcilbXRC05NgvLYIvboI/exi+vkVTXyibiXLJfGkKnj4G//Z5zdPHRHJfHnbzeWBdpfzEXUvPBIwnzANqYCT8ohF+KAZpna2Cq8rT5PgWnuam3c+GfLCmHBpLFDvq4OenYF+HSOiMb+BMv+K/jUH7iOTOV+fNVetr8rJ+A0eL5jGdMg+ogZHwi0b4kZjktGd+L8y58Yw6pcTr/mAj/IcH4I/ugR11kBeQi+yxxLv/s1PiKEw7s26CErXeM6umfiKurzuhx8DAEP7qGjmj06767WbX5edk1eobhQIqI/DkWvgP98NXNoPfmyV2wpY02vhlZM6b1QFHA9GkuqaH38DAEP46kXKyXncAr1q8wpUcn2TLVeXpOa2wFJJkc3mMfnaSjdbZRhsGBsaGXwQooCDg5s5niJjQpG1F4CakfKbh5ZkB+MVZzbNn1Iw0167qv7qcK84RTWocrWbMg4BHnIIGBobwi0F4JXXuXg+k3EYXo9OiRufe4DETaegZh2fPap4/qzgzmCVwxjMf9mtWlaoZNT/rT1AzEt1SkJcjPgEDA0P4xbBlFBSFND5LkULi6t3j4hkvzLkONQHxAwxG4c0O+PFJzTvdiumU+AO0lldJrjSt/PhyxcrSuR1v045U39lOdm0FQU3QZwrjDQzhFwUeBcuKxCsfde330wPiyKvKW5iG4LVgKgEnLmleOKd47SJ0jCo8lpA9bYstv75SuuVsqRa7Phy4zJfgOvKStuj9HguqIoq8gHlADQzhF0fCW9BYLN7xkWkhWd+kJOOsKnv3FlaOhosjmu4JxQvnFOcHxfPu9bgONwfqCmDXMvjsOkVTyfwpuyATbE71i6RXyDEaiyW/3sDAEH4xbHhEdV9erOkZVzPZcXvaNQ80qivsZ78HIoGsKp6ypY31yLRmOiV/9Vgi1fOC0n76k6vhjmooy736BmJrqcXvm8pqDkU5UFcIQdPU0mCxBd1H+ctHArC1RsitERX9tVaRtpeHxApzYEVp1gHnaOiZUMRTamYT8Cgpdf2ThzT/1wPw8HIps72WtjA6DS+2aPons4MrlpeIhDcWvIGR8IuIkA82VkF1nub8kEIpGJhSfPeoVK/NVqlDfqlq29MGR3qymXJaS2lsdR48sRYeXwFNpQujatKGvRfhtQuKlC1mRsgHGys19YWG7gaG8Iur1ivxnN+/TNE94XaR1VLltu0CfHJVtrpNAesq4Bt3ap46oqReXUNBDmyo1DzcpNheK+r8QqC1VMT9pBn6p7J59MuLYVeDMiOoDAzhbwWKcmS4xFsdMhUWBQNRePoo1ObPbYaR44P7lipq88TuBnlPXaGiLPf60nInEvDUUc3+TrCUtMsK+eH+ZZKYY2BgCH+LpPyGSvh4E7SPyYgopeDEJfj2QU15WNEwy57OVMYtK5bf/Z537183j3znmdOKn7gDLywlMfimEs2vrFKm6YXBLYNJ3nTt88+uFSeb38NMgv3ui4r/+Aqc7NczSTGZTSLHHSB5PWTXWrrs/P1BxX9/S5J8Mm2xq/M1v7tdUVdg7oeBkfC3HJV58K92SJ/5Nzuydey7W0X9/nf3SJOK/MCNFdgk0tL19gcnZM7cZMKV7BrKw/Cvdih2NdyItmBgcB0arRk1lYWj4c0OzX/arTg9kJXmtiPJOI+sgHvrpctNYc7C5svF09K95kiPtMF6pwuiKQnh2RpKQ/DlzTI62iTaGBjCv8dI2uKl/x/vSAtr20F63jkSt28qgTtrYU2ZTJAtCUlYLuAV6ZxMC8knEtA3qWkfURzshgNuo0tHZyfSVkak//yvroWysIm7GxjCv2+kP9IDf39Q82qrIm1LUo7jtrQK+mTYxNIiib+HXHvea4ldHksJudtGZVx0LCWZeRmNIGlL2u0f3i1dchfcR8/AwBD+1iDtwIVheO4c/PA49E5eKYEVc2e9Z6Azr8uubCZJZ1ut5subFPcvMyWwBobwHxhoLRL7eB/8uFmzpw0m4tLQIqOaZ4ZSzP7M5YT3e6RwZlUZfGoV3FUPNflmlJSBIfwHEo4WFf38kJD/cA+0DsHwtLSrmn0FM9VuGZKXhWFTlWZ7rWJVmZgAJovOwBD+NiF+NCmx9I4xyc576qhmIi4y3lKSkPNAg3jxq/Pl97KwhPNutkHmdEqyAKNJaaPlIK2wgl4ozoXC4OL15LtexNMybjuakhCko2VtOT4ozTV+ig8KjKy5DlhKPPWRgHjYQz7459NSzw7Z3Pzf3S4e+4BXSH4zHNQIkfZ3QOuIdMYZj8voKwchVMgnE2pWlMDmKmgqfW/MBY3kLRzt0ZwbUrSNSHQilhLC53jFuVmdD43FmvUViuUlRsMxhL8N4bFEZQ/6pDw2M4pqJDq35fTN+A+SNrx0AX7WrDl5Sc201b5cJcv4EcJ+2XB2NcBjK6W7zq1I5NEaRuOSlPTieTh5STEcE0fn5fqiQqoAw37F0iLJY/jyJmn5ZZk4pCH8bUV6BSFfpuetPOz9UWgb1SwruvGnOe2INP/HI/ByC/RNKCGHu7M4GfE6m/BKRlO90y2FPfs64Msb4d4GFrVVVtqRKr+/fVuzt10xFM12/c04K2fW5m5EjiOTdA51w9kBONyj+Z3t0vIrxzT5MIS/bRwgKjstJoOxuMyHX1Z0Y8dM2HCwC/7+HdjbLh10PJZk5Tm22OuRoNjHlpL4fjQlqbogqnw0CfvapV1X/xQ8sQaKFiGLL5aSgZfffAv2tUuXXY+bn5B2xLSIBMRhaSnp+z+VkLUpJe+dTsGeNsXAFPzmVslDKDD2vSH87YLL1euJOLzRpri/QXLkrwe2hqM98N/egCO9bujPEjIVBGFlGawug5WlkuHn9Yg93zkGzZfgZD90joLHreDrHoe/OyDHfnLdzTnOkrZkC37rbZHU2lXVk7Y4KFeWSl+AphJFUUg2wsmk9P073qs4Oyj2fob454bgb96WDeuJNbJRGBjC33ZIO0KIPRfhM2uvz4buHoNv7RcNwZo1BWdzNXxmjWZrraIyIlLea2Xz/JO2SNGD3fCLs5IaPJWUQRaZ6bVlYfjY8htL9NEaWobg6SNwuJs5lYPbauGRJunhVxlRBH1C9uzaFCMx0QxePA+vXxQNRCnRQP7hsDgcH1hm8hIM4W9TDEbhJydF6q2rXJiXPpEWm31vO1l7HbizVvPHdys2VEoXnMsdXV43GhAJCPHWVkja7nePioT1WHBxGL53TP6+vvL6v89AFL5/XMyElDuLDw0PNcJv3yn9AUK+K0OCmbWFA1KNuL5CEo7+8Yio9kqJr+Jv3tasLFUsKTDPzq2G2VNvARwNR/rgr9+C84NXeq6vUOUdONyt+flpUetRcmO2VMP/ca9iS404t97Nqx3wQkMhfGMr/Nad4qzLZP4d6ZHRV0PR61fl97WL8zCaqd934MFGzR/dI115c/3Xjv8rxK6vL4Tf2Qaf3yC/Z/a1Iz2Kn50S9d7AEP62NOpTNrx2Ef7yTc2ZwWt/ZGwanj6qGIq5qjwSXvv9nRJXX4iqm7LFZh9PQHkEPrcBfmVV1jSYSsErF6Tsd7ZK/m4YjsJPmzW9E7KOZFq69/7BXYrVZQszWeJpWdtkUsZ7/dadcHf9rDoEBf90QtMxdqVPxMAQ/gMLj4LaAi1SGlF/d7cq/mKvOLymkvNL97OD0DwgmoHWIpkfWylkXwihppLw8gX48z3w1FGpv6+MwGfWiVS1HVlb57hmX7uedx1Xw8lLcG5QzYTcfB6R0GvKFmaqxFLw89PwX/bCU0ekHXd5WMZoV0b0jAYwGFW8cuHdtSEDQ/gPDHwe+NhyxfJiCacpV7q90QZ/thu+fRDODc6VsClHHFpDUTdJxc3W21kn4beFkP25s/AXe+Xndw7B8+fEMbamTJxhmdLcqYTiVL9iPL7w73SsT3wSHiV+ho1VIp29C0gTtjX8tBn+6k1Z27feVvzyvJgJayrgvgY1s6GlHTjQKecwMIS/LaCUhM3+8G7pPJsZHZV0JGT2vw7B/7Mbvrlfc6gHUo4mZcPFETeO7oasVpdzxcDJ+TCdEs/33x4Q51fakSKfU/0y4CLkh03VokZnJuv0TQqBFzJ7PjPkMp7OOhE3VokDbiHS/dkz0kikd0I2wKEYHO8VqV8cEg0m10280Rq6xqFvwqj1txLGS7/ICPrEe10ehm/ul/54aVse4vE4vNkOR3sVz5yGsrB0qD0/mLVnQz5Ykp8dOJlyJMZ+oEs2gS014iSLJYVQf71f7ONMpls4IF14Mx106go09QVwvE/hs2BgSuzlMwPqmsSylOTFnx5w5+U5QtJlRdnZ9kl3COaRHvH+b6wU52IiLWv75n7ZMDIIuxtQ2C8aQ3WeDO6cHJINKJaC7klpLGLa/xjC3x5SHol1b62B//SweOpfbhHpliFSJvusZSjrVMt44CMBKHUTdhwthPo3z0rGXHEIvrQJHl8p2Xh/sTc7xMLRsln8xmbNE6uzs/GKciRJx9YQsMTT/sxpxfNnry1JlXv+eFri+Slbkn9K3Rz4tCO5Bv/vXqkcDPk1/3qn4tEmePUC/N07WbI7Wkj+1c3wiZXZ4pnCHMmpPz/kakJpGJzKpuoaGMLfPraSkpjzv79PpPKzp6G5X2La2m2eMTu5BldCB31Z6Z524GSf5K77PNA9ITHslkE41pslu+2Won5hg+ZrWxQFs+bbh/yKUCDrDNNaJHBigXpzZn2ZtWVCcNGkbEadY6JtxFKKb70Np/tFG+maTfaA5PV/5Y65jTqDbqVfRj1JOdkUYQND+NsSRSEZWbW1Bt7uhKO90DkuhBiccsdbuTn5CrG1M/FonzvSuiRXbHKPq5I/f042g4xkD3jhV1fD17eqK3LmU7brQJy1sWTGWS+E7B6y1Xiz15bjFfW+IEe+g6Vkbc+czpowaNmovrhRmnVWXNao03bcGX3u5uNRpnTWEP5DgIBXstyq8uDjy0XK906Ig61jFP75jPSst5RIuOFolnBrKyWE9bcHRDJ7LHECZlRunyVts75xpxz/ckzEpaDHUm5YzYJlBRK2u5bjznKleMuwxM+Va9OPxuVzfi/srIdPDcF3j8l5LCV2fYbUSUfz1Y2Kr29xyX6Znj6RkByEmYfRI/n+Rp03hL/9bXsl2WVFocxceiHgYFRCda3DYHmE8D0TIkl9HrGbv7xJquieOirqc2ZaTdAHn14Fv70N6ovmz8TrGpdNxesW4VSEZSDmtlr1rtlxUwn4093wepsQvH9K0zEiXXz9Hpl7//WtoNB896hiIpEdp6215osb4fd2SK785afKNM/oHM9uPEGvvNcw3hD+Q0f+TFltflDi7nvbxEGWdkSqdo5JeyyFZM79i60inf/xiEjssB8+t06y1qry5yd72pEIQM+4bA7xtHSf2b5EUVe4gIVqaCzV7GmXg6dtydQbi0vITykh/b/coVAavnNUpHbQC59dB7+7Q1FzlRDeVEKcdROzcgJKczXLi5XhuyH8hxd+D2yoEsnfMyHSrrlPKt9q8sUcUEiY7SubpfnFgU4pqvnaHYryyNUFYueoVKdZVrZF9vIS6cizIFIp2FSpxIcQE43jnW7xQ5SHs1mAkQD89naIpWUI5/Yl8IUNMmV3Pi1Ca8k9eP2iOOpANJBttco0xDCE/5DfAEvmzq8sk6QYgMEYvHBes7FKsbI0q2KXR6T45NfWQ2muEo/5VY47Hpee+kd6RTNIa6jLh3vqNWH/wmXo5mpxzh2MyVqHYvCjkxLrr8nPvi8/B/7gbpHYJbmSUHM1kyGWkl6A5way0YP8gJTvmtl6txbm8n4AUOJ68v3u9pty4GC34nvHYGR6rl1dEJT8+PA1yB5PifT8cbObJQf4LalsW1dxfeOoy8PwUKMmPyhedb9HuvX+4ISo77PXVpQDdZm1XWNPef6sePMTdtb0uK9BTBujzhvCf+jh80h++v1LJaauEOfcz07BX+6Dkdhcj7q6usnNeByeOQP/fb+o9Mr1ztcXweOroCpyfWsLeuHBRsXWGrdqTwtRv3sU/ma/TORZ6NqStmgH3zogEYrM36vy4Nc2mP52RqX/CKE4JO2tzw2Jx95jicf+n05A15jmN7cq1pZLJd18au90SnwATx/V/PyMYjSWtZeLQmLv31t//b3xlZJcgN/cInkDzf1C6pFp+M4RcTB+ZbM0tyiYpy++dlNmO0bhJ83SkWcwmv2//CD8651iIpgutobwHx1VS0nnmD+4C/50t2YwKp1qE2nYc1G847saRBMoD2fr5rVL9tMDEs9vvpQNt2V6w39uneITK25cgopDTUj/V29C+5icfzoFr7bAiT6pH9jVIM7HTNhQKdE4jvVKu+3W4WzijtaStfflTfCJFWbGniH8R1S1v3+ZzK/79iFJxlFKPPMDU2KTP3dW8tkzTTEcLZrAWFzIlCG77UhK65Nr4UsbZTLNzSDghYeWyzn+5kA2UQglEvuHJ0V6l+ZmQ45KiZNvIuH209dZNb4gKE06Prde8hIMDOE/kigIyrz4wpA0tDw9kLXDbUfq36PJK+3j2bAdkbRf3CAStCpvcZxh+UH49BrIDcB/fUNKcq1ZabeTCYmvX2ttjpbv+Ls74FfXyAahjCpvCP9RRiQgKbjVEfjucZHq8XSWtNeqe/EouKNW8td3NYjnfDEJFfTBw01y3O8dh9dbpQKPBaxNAZsq4Wtb4MFG0UAM1w3hDRCbdlM1NJbAF9ZLXX3zJU3riCKWEtVau/a13wOlEdhUqdlZB2vLFcUhriv8dj3we2B7HawqhwvD0pb7cI/Y6LGkO3IqszYv1ORJN92tNbCuXJKIfB5zjw3hDebAUqJGb62FO2pERibcKa2dY5qkraiIiMqeFwSvK8rfCxXZo0TK31kDW6uzzsPeSUnlTdniXFxSCBF/dhyWkeiG8AYLJD+Ip31pEdQXqpnZbe83MkTO9UtRUGMxM10sDMEN4Q0WiWQf2LXN/GPwgRMc5hIYGBgJb3CD0Lf62FpCW7bbw95jZVtlfRCEqs6szbXzTfacIfyHyq72XjYverHHJWmkZdTotPSwG45Jks14XNpU5QYk3bYwR7rYlIWzJbXvBRy3R950Sl6TScn9T2soDIozMeSTjL+gTzYoswcYwt+W8HmkrDOT4+poIeNikmkgKoMs9ndKQ8uLI1K8MtNc0m2IWRKSUtbtS2DHEnGc3cr+cFrLptM+Kp1rhmKyGY1OZ0OGlpLNqCQXinOgLAINRdI0w5TBGsLfdvDP6sGmXRJkilZuFvG05KD/6CS82gpDbodapS6bNecSf2QaXmqRzjmbq+CTqyUVtjR38SWq7UgH3Xe6pGtNJrtu9qy4zDknEjLv7oKW61WTDzuXSP2/GQ9tCH/bSfiCWeOgbD138MKNqvBj0zLI4QfHZe6c7WRHO2V6tmdGNutZf7OUSP/9XVLFdrxP89vbFPWFi2dL21rSfd/skAEYtr6y1fblp8qsN+1kp+yMJ6RC7lqNMgwM4T9QyPVJMwqPBY4txDw/JGp42Q0Uq2TGLf3dOzKAcbbkVLg96/2QF9SUhKSRxUhMMxZXTLo59pm5dUNR+OEJRfso/PG9C59Cey2Mxd1W2z1iq8+QGTm2zyPddcIBd+BGUtT7lC1NPRzX/BiOybCKthG4d6lIfePcM4S/LSR8faE0lehwJftgVMZJfXrN9avSI9PwPw/CPx6WPnSZz+cHoKlUbPP7G2BZscLncSvptGIkJl1oXr6gOdanGI5KhZ1GbP+/2AP/fpeMgrpR23k6JSr8/s65rai9lmxuy4qhNl+6zua5Wk88BZemoHdC0zai6JmQ42jXZDnVL5vcoyukms9w/tbD8yd/8id/Yi7DTUDBmUFRVSHrUNtWK5lnC0XSlg43f/VWVqproCJXGkz84T3wSJMMcgx4ZbPJSNW8oNTSP9ioKApqBqaUDIxEEi16JmRdq8uZM5VmoUg70pjjQJfY5Bli5nhleOaDjeIwLI9IN1uPJa+AVxp71BeKWeHxyOcTaTfEqES1z/XLpmls+lsPc4lvEhVhWFvujkxyHVpHesR5ZjsLO4ZGVPnvHQPbzpK9OCR9379xp0jPhZgYT6xV/P5dsKnKdSYqsbP3tGlev8h1zYaf0TxiUhwzu1NNXgDuqpfGk7UF766SF+bAXXXwyHIJH2bMgWQa3u4Sf4CZGmsI/4FHwCsNGFeUZp1PA1PidGsZzjZ9eDd1+RdnpPLMstwpsH74zFp4cp1IzYUi6IV76mWjqC9yw3YWjMQUL57XdI1dH7GStkyv7RgVGzzjgNtYBdtrhcgLVcVzvKKJ7FiSDRkqJZGNQz1mNrwh/G2CVaVSvx5xielosXWfOgL90WsTTCPtqV9uEXJp1zdwV70Q/ka6wQS9Yut/bbM4+jJrOj2g2N8lG8xCMRSV2fbT6ezU2KWF4gTM8d/Y9VpRKlpRRoX3WDIwo21kYRukgSH8++68+8xakXoZ1TaRlgaUTx+VDLmrPcipNLzTKXZ2xuNdFZF5cU0lNx6yynHn1N9TL15yjyXkfafr+ia09k1Kgk1mll2uTyR0yU042UJ+2F6r5wyXTNiSxGP4bgh/W6A0F35vu1saOsvZ9a398M390g4qPY9NH0vLsIjRaWG7x5JsuW21Nx+qqs6Hh5drcnwa7WYCXhgSr7mzQGYNRUUjyMTRG4oXZrNfCwooDStWlYm5kfEL9E+x4HUZGMK/79hSI7Zz+aze72kN3z8Gf7FXYs+D0VmdWxGHWNd49m8BN9RXMiuO72hxto1OS8vn2dqCdrWJkZhIbvsywiwrVtQVqJnx0gNTcH5IzRBLuxtTIi2hstmv6bScM+3MChEGFydl12e5TTus7Dom4tIxx+DWwcThF/NiWvDYSlGBv3NEOr8oJOnkxfNwakAcXfc3iBc9HBAJGk1km0HmBecm7WgtavW+Nkl8qcoTb3dmDvxUQlpMtQxLeGv7EmgozJoCJSFNWa7iVD94vCKtx+PuhFdkkzjrDpy0LxsoYTuSX+BxHYlBDxQEsl1pbwZKiWMy15d11iVsycmPmJHRhvC3C8J++PwGIe63D4kzCi3hsQ630GR3qySobKvVpBzFQCxL0JBP5rRlkHQklfVgj2wK/VMi/bfWCCm6xsXDPeDm2uf6pGIu40DMDSjCgWzKa9KG6ZRGo0jacGYAXruYtdPnVQPd0F6eW/22WFlxuQE53qi7ASXdqsCl5jEyhL+dkBeQFsxL8uF/HRSyTsRdO9gWtX4wCqf7s9MkMiSy1GUSVGfVfY/KjmyaUcdtIWOm7DTlSNnsbLJmBkNkRLd2qZ1My0YRTbj/r+a3tzMn86jFbT7pvex4mVp6A0P42w5+D+ysg9Xlmn86rnjlgqjOsZQQ0tZZB9Xs9tOx1NyZ6T6P9InrHBWVtyRXSkw9btOLqjxYUSJFOwGvePYjgezno26veMvdLELebIVfwCsJPa3Dkt+u5mG67WRLXacSUtjjaFgM3k8mYHyaGde832uGUhjC3+YoCCq+vlVCWW92QsuQqPld4yKpbUekckYCTyVE+s+ugFtaBJ9aI/+XH5QMvIwJUBSSxJ/hqMTfyyNzVe6RaSFzRsrn+FzCK3GcNZWIdnBp8rLQoasZnO6HnknZYKbT4kdYLE/6VFJSbfWsTbI4x9jvhvAfAmfe+kpYVSZk7hwTW75jXAY0vt2ZzcXPDF4cj2dLb72Wm44amd++LsqR13y4OAJto1JeaztibmRm04HExNdVyNq4jPAKKYDpdefWO4i9nbBv3lOftOU7ppysQhHxz9VODAzhb2v4PKKCV+WJNM2UtJbmav7+oCKakBDY8UviTNux5OZV5oNdYiIEfZDSUoq6ZJ5y1KsVrpTkCrmTabG5L01IM47ITU6NmYjLxjdj1ijRXEwnnFsLc3nfJyiVlbZ31SkqwtmuOeeHJGY/FL3x46ccSe99oUXj84rPID8oKbHXUzFXHhHPv+M6BvujcKD7xopwMkjYcKxPc2FWrYGlxJ9g1HlD+A/3DVBStnpPvcbrtrCKp+CZ0/DC+SsHRy4EjoazA/DUUc2QO3Zaa3Hu3dtwfcU4lRGpdfd75BheS8KEp/uz0YLrXVvXGBzqVjOZh9rVPBpLTPcbQ/iPAEI+eHKdojrPDUspse2fOgJvtItdv1CkHam6e/oo7GtXMznw+UF4sFGzvPj6EmcCHhl1taQw23knbUvDjTMDbkOLBTrxUo74LvZcFGddhuy5Acn5zzP2uyH8R0XKryiFz64Tz3mGQOcG4a/fgufOZbPjroXplGTd/fVb8MwpNyXWjetvqdE82KjID16/6VERhvUVkhnouD3s+qckgejtTnFEXstzrxET4FS/NNpsG517/LXlkk5spPuth+l480G5ERbUFEiK67mh7PDF/ikhykRcHGWZTjeOziaqTKehf1JMgL98C/Z3SIaeR0lDjeUlmt/dBpuq1Q0lzngsSduNJqVfn+Nke9Z1jUvoL9NyK9PU0tGSjz+VkO9wqFvW1TeZbbyJFqLft1TCi4bw74HvSGtTgfxBgaPhxCX489elnVTaJZajRfJX5sEd1bCydFbRidu7/lC35tSATJdVs463pFDzx3fDYyvVTYXSnExOf3vWfleubyDTOrsgKGm9pWFZ73BUetqNxESdt51sNx8Lsdt3NWRzAQwM4T+SpD83CP/jHVF/JxPZ4YxaC2mcy6rlMum4mVBbZjZ7Uwn8yx3wcNPizIrXWnrQHeiUnvnjibmhe62zRTkZdX2mpfYs5Hgl7r+t1nSsNYQ3AKTH2zOnxFvfNipx8Ay5Z5MoQ7DMT68lsfO76qQ91rbaxSH7bCRtOHUJjvS5GYPpy9KEZ+UKzya/x421b6mRDromycYQ3mAWppKi2j93VnrBj7sdXxNpIZ2jxXYOeCQ5JuyXBhwPLYf7lmpq8tUtk55p1+N+zk0THp0Wmz3Tgz4TwvN75BUOQHmumCMrzNQZQ3iDq6v4PRNCrv5JuDAiv/eNa5K2oiwstn1dgfSaK4tIJl2O79avTWuJDEwkJHQ4FpdkoeGYbAgZm744JHn+YTd11tjrhvAGC0DKFoLFbbe3uzuvze/NTmd9P83htJOdNJMxL/yexS2pNTCENzAwWCCMcmVgYAhvYGBgCG9gYGAIb2BgYAhvYGBgCG9gYGAIb2BgYAhvYGBgCG9gYGAIb2BgYAhvYGBgCG9gYAhvYGBgCG9gYGAIb2BgYAhvYGBgCG9gYGAIb2BgYAhvYGBgCH8ltNaYxnwGpj3ju8N7Oy/ecTRjY2MMDA2RF4lQWlKCz+c1d/UjhnTa5lJ/P9HYNNWVFYRzc82g+Q864dO2jWPbeL1eLGthisfk1CQ/euYXHD1+iob6Wn71k5+gYWndgj//QUU8kWBkZBTH0ZSXlZpN7Fqbvta0tXfwD9/9IfF4gvvu2cHDD95HIGDG2nzgCG/bNp1dPQyNjDI9PU0ymSSUk0NJcTE11ZWEQjnX/HwsNs25lou0trXjODYjo+MsrV9ctW5waJhL/QNEwmGW1FZfsZlorenrH2BgYJDSkmIqKyuwbmIMquM49PZe4ufPvUQ8EedffPWLlJYUv8eak8PA0DB9l/oJh0LULanB7/d/MNV4x6G79xJnz7eitaZhaR2pVMoQ/oNG+Ol4nCPHTvLK7r10dveSTCVxHI3P56O6soJtWzayc/tWSoqLrnqMcG4um9avwe/zsmxpPdVV5QuS7m3tnVxs72RJbTUN9UvweK4+KeHkqbO88NJuVjQ18pUvfOaKB19rzaHDx3hp91523bODTz32CNZNSuTYdIyOzi5i09MkU6n3/N5MTUV5480DvL5vP0X5+fzWb36Z2pqqW3rOg4ePkUgmWbl8GSXXscEppVhSW80dG9eRdmzWrGoiJyfHMPuDRPhUKsXRYyf5wU9+zqW+AWpqqlhSU4XX66Grp4/zF1rp6bvE5FSUxx5+kIKC/HmPk5sb4rFHHuKenXcSDocpLMhHLUC6Hm8+zTO/eJFHP7aL2urKaxJ+enqa4ZFRJiYn53cKaYjGphkcHmZqKspiuA8VCo/Hg8fjRb0PxujA0DAnms8wMDDI8NAI3X19VFdXYKlbZyr94sVXmJyY4te/8CTFxUULuo8AlmVRV1vNV7/0WWzboaSk6Jr30xD+vVbBtKarp5dnX3iF0dFxPvbgfTy4627KSkvweCwu9Q/w6uv72PPGfvbtf4el9UvYesdGfF7vvDe7qLBgwUSf7eSJx+PYafvKWcbzSBDLY8nDfpX3WkrhsTwoy7ql9MxsOErdurPYtk1//wADg4MopdBozp2/wNqVK4hEwgtep9YapdSC15pMJIknEmhHX/f383q9VFVW3NC1yaz1Rv0+juNc1/fMfCbz/H7oCT8dj3Pi5BnaOrpYvbKRJ37lkTk26tL6Oh5/NIf+wSEOHznBsRPNrF29Al8kguM4TE5FGR0bx3HsGennaIfcUIiS4iK882wMjuPQPzDEdDyOpRQTE5MopZiYnKSrpxevxzMz2rggP0JhQcFNk0przeDQMNHYNCXFhUTC4Sv+f2x8gtGxcQoL8snPi1zxACg1632jY0Rj0ygFkXCY0pJicnKCi35/JianONdyAYC7tm2hu7ePo8ebuXfndiKRXK7m/tZaMz4xydjYONFojEQyQTAYpCA/n9KSIny+udMt4/EE/YODOLYDSpFMpcV3MDhIW3vnHDIXFxcSmqWmp9JpBgaGSCSTc1ZjeTwUFuST9y4bk9aayakpRkfHicWmSSQT5ObmEgmHKSrMv8JscxyHyckpRkbHyM+PkBeJMDo2zvjEJNFYlIDfT0F+PsVFRVd1sNqOw9jYOGPj40xMTGFZFqFQDgV5eRQXF75n5H/vCT8dp72zG9A0LWu4wiGlgPy8CBvXraG/f0DmnruSLZlKcfjocX7x4qvEYjEsZWF5LBzbYcO6NXz2iccpKiy44pzxRIJ/+snPOXv+Aj6vl9h0HIADh49x4vQ5lAKlJVLw8Qfu5fFPfBy/7+bGr6bTaV54aTfNZ87zmU99gu1bN19m1qQ5cPAIv3zldR752C523bOT4DyOpuGREX758mscO3mKeCKBpSxKSwq5964dbNu6ify8vEW9P2Pj45w9f5Fwboh77trO62/s58jxk/Re6mdJbfW8GypAR2c3e/bt5/jJ00xFo9iOg9fjYUltNfffexcb16+ZQ9runl7+7ttPE5ueRinF+MQkjmPz02dfwOfzuURWFBTk8fknP8Xa1Suzaxwb5zvf/xGdXT3iIFXg83rJz8/nkYd2sXPblmtK166eXva++TbHT55mcnIK23Hw+3zULalh57YtbFi3Zs6mkUylOHL8BL944VXu3nknK5saefaFV+jo7CKZTOLxemmoq+Wh++9h9aoVV9zHZDJJW3snu/e+RfOZc6Rdv4zl8bC8oZ5HP/4Ay5ctveq1va0Jn0gmGRoeJhDwU1VZPu97goEAd96xkZqqCkKh0MyDYilFJBJmSXUV8XgCy7IYHh3lQmsbg0ND2LZ9FZXboriokMqKcvx+HwMDQ8Smpwnl5FBeVorHnV9s2zZ5kcgVMkyhsCw17y6sLIWa5+9aa4ZHRunpu0QsNj2P6a+ZmJyip6ePiYkptKvmzT5ubDrOy6/tpaOzh4ryMixLMTI6RktrO2PjoqXce/d2AovkQU/bNv0Dg4yMjbG0rpbqqgpqqio5fOwEZ8+3sm7Nynk3mP6BQX7+3EscOnKMSCRM3ZIaAn4/45OTnD7bwuDQCLZts33r5hlJ7/f7KS8vJR5PoJQiFpsmlYaC/Dzy8vJmrKdIOHwFgXxeL1Xl5ViuKu3YDm0dXUSjl5iKRq/5HYdHRvnxM89x+OgJ8vMi1NZUEwj4GR0dp/n0OTq7epmYnGLXPTvIDYVmIgGTU1H6Lg1w7MQpWts66O8foKa6EtB09/Rx+NgJpuNxwuFcli9rmNEQtdZ09/bx8+de5Oy5C5SWlVBdWYHW0NPby+FjJxifmOS3vvYlqqsqP3yETyVTxBMJAv4AeVeRTpZlUVpSTHFRodjQLqF8Ph/rVq+icelSHO2gteZE82kGB4evqYIHAn5+5RMfJ5lK4VGK519+jedffJV1a1by2CMPzXmgcnKCV+y0Gs1UNEZ//wA+n2+OY047mqmpqXnP6/FYeD2eq67NshRerwfLUleoykopotEY3T19fOaTn2D1qiaUUgyPjPDiq3vY88Z+3nz7IHW1NTQtb1iczTiR4NSZ86RTaRrql5AbCrGiaRnhPSFaL7YxNj5xBeFTqRSHjhznRPMpSkuKeeKTj9LU2IDf72NiYooXXt7N7j1vsm//OyxftpTyslKUUlRWlPEbX/qcq70p/stf/g2Tk5N8/MH72LBuzZxnIRLOnXPOSF6EJz75KHY6DUqRTqd56vs/4WzLhWuqxqlUiiPHmjl05Dg11ZU8/shDrGxqxO/zMTw6xquvv8Ebbx3g9Tf2s2xpHSuWL5u5d5Zl4Q/4uXCxnS2bNvAbX/4clRUisM61XOCffvIsrW0dtLZ1sqSmhmAwMKMdXGzv5NTZ89QvqeXzT35q5nM9vX38/Bcv0XzmHK1tHVSUl91yh+N7TvgMUS2Phd/vm6X2pBgdG5sjpTWagD9AYUE+Hpc4wWBg5mLatk1uKBdlKa6VVamUoiA/+6CGXNs3Y/fnBIPvZpDT2tbO3337aVea67mSfHhs0dM6tdbkBAPcf+9dbLtz88ymVFRYgN/vp7unj7aOLrp7e1neuHRRHHnRqSgXWtsJ5gRpalxGTk6QmupKCvLzGBwaoau7l6qK8jn2+PjEJG0dnUxORXny04+zfesdM3ZsQX4+jz/yEMPDo/j9fiYmpygrLUEphc/nmxNy9Xk9WJZFfn4epSVFXCtVzmNZ5OdFshtVKikm2LvcgmhsmncOHyWUk8Ouu3ewY9uWGdMtPz8P/8cfYGBwiJYLbbRcuEhD/ZI59nw6naa6spzHHn6QxmX1M5tLbmg9Z85e4OXde+m7NMB0PJ59RtM2sWiMZDJFQWE+VRXl5LvPYiScS+QLES71D1BTVXFLnbHva1hOa7mds79fR1c3T33/x4yOjWNZFpalSKdtVjU18sVfe4KC/Px5j3MzRLueEFoikeTSwOBVPMypW3CNNDmhIOvWrJyjsluWRUV5GSuXN9LR2c1UNEYqnb5pn4PWmvbOboaGR6iurJiRNqFQDqtXreCl3Xs4dfa8qPWzzjU2PsHwyBiBQIBlDfVznFYiycv5xte+hNaavHkck/PdVK3fNXhy5YOwkA0tFqO7t4+y0mJWNC6bc80sy6K4sJDlyxo4f+Ei7Z3dpNM2s60l27aprqpkaf2SOd/D5/NRVVmOP+BnbHyc1KzciUDAT2lpCZFImJPNZ9m9Zx+bN64jGMwhN5RDdWU5tdWVtzz68j4SXs14n23bmaP+5gSDJEJJFIrJ6BS9ff0UFuRL+OxW7j4LWPPqVU18/jOfwuf1ztkmtHZ4+dU97N771iKvCyzLQ8AfuOJB8Hl9hMO5OI5DOpXGsW24ScLbts2Z8xeYmJxkZVMjnd09DA4P4zgOAb8fj2XR09PH2PiE+DncNUWjMSYmpygpmutJz95XD2WlJdfztW/oWi1o044nSKVS5IZyyM+PzBPe81BcVIjH4xVt8zK/itaaQMDvmmBzoynBYACfz4Nt23MeKY/HQ0P9EnZu28Kbb73DT//5BV55fR+VFeUsW7qEhvo6mpYvo/AquSa3PeG9Xg9ej4dkKkUsFpv5e011Fd/42pfkIbZtjp9o5oc/fVZ2evU+V0IoyM0JUVtdeUV4STsiua75cXVjD6m6xvEsy0KTiSPf/Fecikbpu9RPMpnkyPGTnDpzFpSFQpNKp4lNT9M/MEhXVy/VlRUzfg7HcaQGwudFWR/sipWZPAZLojvzXXGPR3Ip0mnnKjdJXfcdKy0p5vFHHqKqopzjJ08xODxCV3cPZ861EM7NZdvWTTz28EOUl5V8+Agf8PvJz8ujq6ePwaGRmb/7Z9l0yWSSQCCAc4vLHdV1PizzrUdrjXb0vHyWt+t5oweOdkgl09dchNbyviukseOQSiZRSh5QaxGI1t7ZTXdPL2WlJTQsrSPg989EDjTQe6mfru5eWts72Lxp3Qzh/X4fwWCA4ZFRUqn0Yuh/t+x+i0NMkUqlSSSS896T2HQcjSYcDi1aZqFlWZQUF3Hf3TvYvHEdIyOj9PUPcK6llRPNZ9i9Zx+1VVXsunfHFQLltid8MBiguqqC482naW3rJB5PzDg4ZtvL3T19TE8niETyrum5VDfAXu0m2aTT9i2ro/dYltw8DSOjY/PY/Ul6L11CXeWhUkqRSiUZHBqmqmJujUAsNk1PXz8+r5ecUM5NPySO49DW3snQ8CgP3X8Pjzx0P+Hc0IxEtB2Hg0eO8b0fPkNHRxfjE5Mz6nskHCY/P4+L7V2MDI9Qv6RmzrEnJ6d4+bV9KAVbNq2nuqpiXjs+k/GWtm/AfFugBhgMBggG/IyMjtLd20dlRfkccykRT9DV3YttO9RUVeHx3rzH3NGaZDKF49j4vD6Ki4ooKixg6dI6Nq5fS04wyPMvvcrJ02fYcseGW67av+e5feHcXNatXUVBfh7Np8/wxlsHmJicJJ1OYzsOU9EoZ89d4OjxZgIBH41Ll8xxWmmtRY10XJVLZdmu3QvsOM41nXn5eWFyc3K4cLGD/oEhYrFpOb9tz6Q93vyuLrar5bE40XyW4ZHRmXNEozGOHm/m6IlmyfK7yjM8MTnFS6/uYWBwiFQqTTqdZmoqypFjJzlx6gwF+fnk5+XddJbWyMioJEMpaFq+jKrKcgoK8iksLKCwsICS4iKW1FRTWlJMy8V2urp7Z65vcVEB5aUlKAv2vX2Q/oEhUuk0Wmump6c5fvIUz/3yFY4eP0kqnboqOYuKCpmOJ2hplfBfIpHAtm3XJtbzEslxnFlalyaTLjn7GZn92XA4zPq1qxkcGuHI0ZNc6h8g7a41Gotx5lwLp8+eJxQMsrSudt507hu5tt//0TP8xz/7rzz7/EtMTE6glMLr8eD3+QgEA4D8/l4YRO+5hLcsi8aGeu67azvPv7SbH/3sWdo7u1m+rB6/309nVzf7Dxymr3+AjevXsmnDujkhjv7BQfouDZC2bRRw7kIr6XSKifEJTjafIRIJ4zgOkXAuDUvr5g25NdTXUV5WwsX2Dv7h6R+yZnUTFWUlKGVRXVVJXW3NTDLODaumClatWM7eN9+mraOT73zvh9yxcT2WZdHZ1cPhYycoLSlhcGj4qgfweDz09F7i20/9gO1bN+P1eOjo6uHN/QdJpVJs2bSOFcuX3fQ96ezppeXCRSrKy6iunF8Cl5eWsKKxgY7OLtrbO9m0fg0+n49QKMTG9Ws5dfY87xw+RjKV4o6N6wiHw/T09rF7zz7i8WmaGhsoKym5aunw+tWrONF8hr373mZkZJTljUspyM/D5/OzbGkdxUWFM++NxxO0XGgl5ibtpFIpBoZGSKVs2ju7OHzsJLZt4/V6qK6spKK8FIDcUA47t93BkWMn2XfgILH4NJs3rCMcznUzBd9mdHScu3dspXFZ/aLExHNyghQXFTAwOMTzL+0mkUyyYvkyHO3Q1dXDgYNH8VgeVjQ1vms5+G3qpRc18IFddxNPJNi3/yCvvLaXvW/ux1IWCdd+33rHRh5+cBdVlVm1K5FKcuR4M//83EtEYzEsyyKdTpNIJIhFY/zvp3+AUhapVJoVyxv4na//OjkVVxK+bkktu+7eidZv0tHZTUvrRQkD2ja/+iuPUlNVOUN4x3FIJJKk0+mr+nDSti0SKZ2eeYtSimUNddy9YyuvvbGft94+xNHjzfh8Pgrz89i4YS0Bn48f/Pjnro2v50ivjKnzyEP3s2fffr73o2eIx+Ok0zYBv59tWzdx793b5+QX3AiSyRRdXb309vVz/707KS+dvzQ1Pz+PyspyFIpTZ89z/313UVpSjFKKNauaeOzhB3l5916OnzzN8ZOn3PuQIi8S4d67tnP/vXeRmxu66jq2bN5Aa1s7Z85f4NDRE7xz+JiEyooL+cZXvziH8GPj43z3hz+ju/eS+2zI9bJth1dee4O9+97G0ZpIbi6f+dQnZgivlKKpsYEnn3iMF195naPHmzl87CRey4Pt2ITDYe7ecScfe/AeimadLxPFSCQSpNLpq5pFyaT7nMy6l6GcHLZu3sjExCSHjp7gly+/xi9ffg3tHjOcG+KB+3ayeeO6W26/Ayj9PjUC01ozOjrG8ebTdHb3Mjk5RTqdJpybS21NNWtXr6C8rBTvLDsqlUrR0trOqTPnSCaToMhWKulsbzvHcSgrKWbHtjvIi8zvQZ+ejtPe0UVHVzcjo2MzquOG9atZu2rlzO5+vuUizWfOUlFWxp1bN12hgmutOXnqDKfPtrBieQPr166eIxnGJyY50Xya1rYOkskkeXkR6mqqaWpqZGhomCPHTrJuzUpWNDVKyE9rBgaHOHT0BOl0mrt33klvXz8tFy4yMjqG1+OlsrKcde71uVkplEgmOXuuhebT51izagUb1q6+qrf9YnsHh4+eJJgT5J4dd87ZbOKJBBfbOjjXctFNc3bICQZoWFrPmlVNFBbkX9P0kASmES52dNLb18/kVBS0JhIJs+POOygvK53jF9j75gHGxsdnhEEmmqNdB41GE/QHWL92Fcsb52YixqanaW/v4lxLK0MjI65GGKautpqm5csoKiyco+Gl0mlaL7Zz9HgzDUvr2Lp5w5zv4jia9o5Ojp5opqy0hE0b1hGetbk5jsPY+AQX2zvp6OxiZGQMR2tyQznULalh9comigoL3pM4/PtG+CyJ06TSKZLJFLZtEwgE8Pt9+LzeeS+Abduk0/Y141raNR2udozZN0Jaa2VCMJLqOju11rZt0raNpayrVkKl0za2ncbj8cxbAJFKp0mlUjhuQYnX68Xj8cj502k8Xu+cjSTzd+1GLxytSafSpO202H9e77t+t+vZeDPf0XvZOq689g5pOz0TVbn8/I7jkEqlpWmH1nItfb4F28Jaa2zHkc3X9aUo9z7OJpjWmlQqjdbOu9pVXo9n3k0xs9aMDe/xevC59+Vaz53lseb9PtnnRO7P5cfI+BXSaVt8GZrsOb3e96zrwftOeAMDg/fQh2YugYGBIbyBgYEhvIGBgSG8gYGBIbyBgYEhvIGBgSG8gYGBIbyBgYEhvIGBgSG8gYGBIbyBgYEhvIGBIbyBgYEhvIGBgSG8gYHB7YP/H0A2HvTTOx/LAAAAAElFTkSuQmCC;" parent="1" vertex="1">
                    <mxGeometry x="-405" y="121.81" width="132" height="96.38" as="geometry"/>
                </mxCell>
                <mxCell id="11" value="" style="shape=note;whiteSpace=wrap;html=1;backgroundOutline=1;darkOpacity=0.05;verticalAlign=top;labelBackgroundColor=#ffffff;" parent="1" vertex="1">
                    <mxGeometry x="-245" y="250" width="80" height="100" as="geometry"/>
                </mxCell>
                <mxCell id="13" value="&lt;font face=&quot;Comic Sans MS&quot; style=&quot;font-size: 18px&quot;&gt;artifacts&lt;/font&gt;" style="text;html=1;align=center;verticalAlign=middle;resizable=0;points=[];autosize=1;" parent="1" vertex="1">
                    <mxGeometry x="-250" y="370" width="90" height="20" as="geometry"/>
                </mxCell>
                <mxCell id="14" value="&lt;font face=&quot;Comic Sans MS&quot; style=&quot;font-size: 18px&quot;&gt;PDF&lt;/font&gt;" style="text;html=1;align=center;verticalAlign=middle;resizable=0;points=[];autosize=1;" parent="1" vertex="1">
                    <mxGeometry x="-230" y="290" width="50" height="20" as="geometry"/>
                </mxCell>
                <mxCell id="15" value="&lt;font face=&quot;Comic Sans MS&quot;&gt;&lt;span style=&quot;font-size: 24px&quot;&gt;slide.md&lt;/span&gt;&lt;/font&gt;" style="text;html=1;align=center;verticalAlign=middle;resizable=0;points=[];autosize=1;" parent="1" vertex="1">
                    <mxGeometry x="-830" y="80" width="110" height="20" as="geometry"/>
                </mxCell>
            </root>
        </mxGraphModel>
    </diagram>
    <diagram name="ページ1のコピー" id="n0KulPF3-nRjg9C7O6Vf">
        &#xa;
        <mxGraphModel dx="482" dy="526" grid="1" gridSize="10" guides="1" tooltips="1" connect="1" arrows="1" fold="1" page="1" pageScale="1" pageWidth="827" pageHeight="1169" math="0" shadow="0">
            &#xa;
            <root>
                &#xa;
                <mxCell id="u-rjD8VXtElLnjHXe8je-0"/>
                &#xa;
                <mxCell id="u-rjD8VXtElLnjHXe8je-1" parent="u-rjD8VXtElLnjHXe8je-0"/>
                &#xa;
                <mxCell id="u-rjD8VXtElLnjHXe8je-2" value="" style="edgeStyle=orthogonalEdgeStyle;rounded=0;orthogonalLoop=1;jettySize=auto;html=1;" edge="1" parent="u-rjD8VXtElLnjHXe8je-1" source="u-rjD8VXtElLnjHXe8je-4" target="u-rjD8VXtElLnjHXe8je-11">
                    &#xa;
                    <mxGeometry relative="1" as="geometry"/>
                    &#xa;
                </mxCell>
                &#xa;
                <mxCell id="u-rjD8VXtElLnjHXe8je-3" value="&lt;font face=&quot;Comic Sans MS&quot; style=&quot;font-size: 14px&quot;&gt;push を検知&lt;/font&gt;" style="edgeLabel;html=1;align=center;verticalAlign=middle;resizable=0;points=[];" vertex="1" connectable="0" parent="u-rjD8VXtElLnjHXe8je-2">
                    &#xa;
                    <mxGeometry x="-0.05" y="1" relative="1" as="geometry">
                        &#xa;
                        <mxPoint as="offset"/>
                        &#xa;
                    </mxGeometry>
                    &#xa;
                </mxCell>
                &#xa;
                <mxCell id="u-rjD8VXtElLnjHXe8je-4" value="" style="dashed=0;outlineConnect=0;html=1;align=center;labelPosition=center;verticalLabelPosition=bottom;verticalAlign=top;shape=mxgraph.weblogos.github" vertex="1" parent="u-rjD8VXtElLnjHXe8je-1">
                    &#xa;
                    <mxGeometry x="260" y="70" width="110" height="100" as="geometry"/>
                    &#xa;
                </mxCell>
                &#xa;
                <mxCell id="u-rjD8VXtElLnjHXe8je-5" value="" style="fontColor=#0066CC;verticalAlign=top;verticalLabelPosition=bottom;labelPosition=center;align=center;html=1;outlineConnect=0;fillColor=#CCCCCC;strokeColor=#6881B3;gradientColor=none;gradientDirection=north;strokeWidth=2;shape=mxgraph.networks.pc;" vertex="1" parent="u-rjD8VXtElLnjHXe8je-1">
                    &#xa;
                    <mxGeometry x="60" y="180" width="100" height="70" as="geometry"/>
                    &#xa;
                </mxCell>
                &#xa;
                <mxCell id="u-rjD8VXtElLnjHXe8je-6" value="&lt;font face=&quot;Comic Sans MS&quot; style=&quot;font-size: 14px&quot;&gt;Push&lt;/font&gt;" style="edgeStyle=orthogonalEdgeStyle;rounded=0;orthogonalLoop=1;jettySize=auto;html=1;entryX=-0.036;entryY=0.51;entryDx=0;entryDy=0;entryPerimeter=0;" edge="1" parent="u-rjD8VXtElLnjHXe8je-1" source="u-rjD8VXtElLnjHXe8je-7" target="u-rjD8VXtElLnjHXe8je-4">
                    &#xa;
                    <mxGeometry relative="1" as="geometry">
                        &#xa;
                        <Array as="points">
                            &#xa;
                            <mxPoint x="170" y="121"/>
                            &#xa;
                            <mxPoint x="170" y="121"/>
                            &#xa;
                        </Array>
                        &#xa;
                    </mxGeometry>
                    &#xa;
                </mxCell>
                &#xa;
                <mxCell id="u-rjD8VXtElLnjHXe8je-7" value="" style="verticalLabelPosition=bottom;html=1;verticalAlign=top;align=center;strokeColor=none;fillColor=#00BEF2;shape=mxgraph.azure.cloud_services_configuration_file;pointerEvents=1;" vertex="1" parent="u-rjD8VXtElLnjHXe8je-1">
                    &#xa;
                    <mxGeometry x="70" y="70" width="80" height="90" as="geometry"/>
                    &#xa;
                </mxCell>
                &#xa;
                <mxCell id="u-rjD8VXtElLnjHXe8je-8" value="&lt;font face=&quot;Comic Sans MS&quot; style=&quot;font-size: 24px&quot;&gt;GitHub&lt;/font&gt;" style="text;html=1;align=center;verticalAlign=middle;resizable=0;points=[];autosize=1;" vertex="1" parent="u-rjD8VXtElLnjHXe8je-1">
                    &#xa;
                    <mxGeometry x="265" y="180" width="100" height="20" as="geometry"/>
                    &#xa;
                </mxCell>
                &#xa;
                <mxCell id="u-rjD8VXtElLnjHXe8je-9" value="" style="edgeStyle=orthogonalEdgeStyle;rounded=0;orthogonalLoop=1;jettySize=auto;html=1;" edge="1" parent="u-rjD8VXtElLnjHXe8je-1" source="u-rjD8VXtElLnjHXe8je-11" target="u-rjD8VXtElLnjHXe8je-12">
                    &#xa;
                    <mxGeometry relative="1" as="geometry"/>
                    &#xa;
                </mxCell>
                &#xa;
                <mxCell id="u-rjD8VXtElLnjHXe8je-10" value="&lt;font face=&quot;Comic Sans MS&quot; style=&quot;font-size: 14px&quot;&gt;CI起動&lt;/font&gt;" style="edgeLabel;html=1;align=center;verticalAlign=middle;resizable=0;points=[];" vertex="1" connectable="0" parent="u-rjD8VXtElLnjHXe8je-9">
                    &#xa;
                    <mxGeometry x="-0.3052" y="1" relative="1" as="geometry">
                        &#xa;
                        <mxPoint y="1" as="offset"/>
                        &#xa;
                    </mxGeometry>
                    &#xa;
                </mxCell>
                &#xa;
                <mxCell id="u-rjD8VXtElLnjHXe8je-11" value="" style="shape=image;verticalLabelPosition=bottom;labelBackgroundColor=#ffffff;verticalAlign=top;aspect=fixed;imageAspect=0;image=data:image/png,iVBORw0KGgoAAAANSUhEUgAAAPwAAAC4CAYAAADHYoEdAAA9mElEQVR42u29eXBc133n+zm3VzS6se8LAYIguK8ixUUbtdiSLMW2YtnxFjuOx9lmMskkM29eTdWrSb2XTE3mZeYllXGcTGY8cSQv8SpHlmRtlEhRoijuJLiCIHaA2Ndu9HbveX/8bqMBEqRAEpRE6XyrmiiA3feevvd+z2///ZTWWmNgYPCRgGUugYGBIbyBgYEhvIGBgSG8gYGBIbyBgYEhvIGBgSG8gYGBIbyBgYEhvIGBgSG8gYGBIbyBgYEhvIGBIbyBgYEhvIGBgSG8gYGBIbyBgYEhvIGBwfsJr7kENwcN2I68NGAp8Fry08DAEP52J7iGeBomEzARh7EEjMZgOAYJW1MQVBSHoCgH8oIQDkDYL5uAgYEh/G0ixeMp6JuE9lE4eQkOdMH5QUg64Dhga9BaYSnwWPIqDcGGKthWC6vLoCoP8oNG+hu8f1CmieW1kbShexx2t8JPmzVnBhQpR0irFrBRaA0oKA9rHmlSPLpCyG+Ib2AI/wGC7cBIDPZ3wk9PwautIsm9HiG61i6hEc+nUlmVP0N0pdwXogHYDjQUwWMr4fGV0FQCAaNjGRjCv79IO9A6DD8+Cc+ega4JscEV4Gh5Bb1im+f6IeSDHJ+8J56GaBJiKZhyfzoaPCp7bK8FO+vgq5vh3qXyWQMDY8O/H5Jdw9lB+J8H4aXz4pzzWSKxbQ05fijPhU1VsLMeqiPg84DfI6ROOZCwYTIOzf3wVidcHIHhqEh7r3usfe0wHofpNHx8uWwaBgZGwr+H0Ag5//Nr8HobJNJiZztaiLqkAO5vgEeaYEmheOKvppLbDkwmhejvdMMPT4iTbzKZVf8V0FgEv7cDHl1hJL2BIfx7iqEo/Oc9mp82K9KOEFNrKAzB4ys0n16tWFMh6vz1ONySNvRNwC/Pwz+fhrNDkLazxG8ohn97DzzUKJqCgYEh/C3GZAL+9yH41gGxwTNkrC+EX9+k+cpmtShkPNQN3zkCr7SIfS8eQFhfCf/3x2BjZfbcBgaLDZMO4krgF1vge8ezZNcaVpXC7++AX9+kFk3ybqmBP7obPr1GyJ7Zbo/3wbcPaQaj5n4YGMLfUpwdgB+dgEuToqprLUkyX70DPrHySjs9loLOMTg/BL0TYutfD5YWwde3wt31zBjzCnitVfH8uewmYGCw2PjIe+mnU/B2J5wayBIt5IPPrhNH2uXe80tT8FILvNKi6ZuEpmLFrmWwYwlU5mXDb+9K+kL47Tvh0gScGxKn4FQSXrkADywTB6GBgSH8IkIjZHvh/CxVHkmF/fwGKAjOfX/7KHxzPzx3FqaSCq3h3CC8fEE+89l1cF+DxOc976I7eSzYWiPn+f/2CdktJJT3Ugv8xh0m/97AqPSLinhKnGhnBt1qNw35Afj1zVARnvveRFqI+LNTsjlYs7LoErZI5v/zl/Dne+BgN0wkJJx3LQS98LHlkoSjAK1gbBre6oCOUfNwGhjCLyrG43CgE5LpbPrr3fUirS+X0GNxaBmalTKLZNlZlqTcBrzi6X/qCPzpbvjHI3BmQByCV4NSUJ0PDzdBcSiblnt+SF4GBkalX2TCtwxByhaCO47Y7bn+K98bS8LAlBASJLvukRUiyQ91SXlsxn4/2gtto+IbeHKtZscSRXnkKjfAEvu/vhCGYkL60WnomZDNwsTlDQzhFwG2I6QciwNuNl1JSIpb5kuq0cxV0S0L7qwRO/z1Vsm5P35JcuV9HpH2e9vg3KDi0SZ4cj0sL74ym04BhTmwqgyO9YmWkbIll38kBhUR85AaGJX+puFosZOTtpAu7cDqcilbXRC05NgvLYIvboI/exi+vkVTXyibiXLJfGkKnj4G//Z5zdPHRHJfHnbzeWBdpfzEXUvPBIwnzANqYCT8ohF+KAZpna2Cq8rT5PgWnuam3c+GfLCmHBpLFDvq4OenYF+HSOiMb+BMv+K/jUH7iOTOV+fNVetr8rJ+A0eL5jGdMg+ogZHwi0b4kZjktGd+L8y58Yw6pcTr/mAj/IcH4I/ugR11kBeQi+yxxLv/s1PiKEw7s26CErXeM6umfiKurzuhx8DAEP7qGjmj06767WbX5edk1eobhQIqI/DkWvgP98NXNoPfmyV2wpY02vhlZM6b1QFHA9GkuqaH38DAEP46kXKyXncAr1q8wpUcn2TLVeXpOa2wFJJkc3mMfnaSjdbZRhsGBsaGXwQooCDg5s5niJjQpG1F4CakfKbh5ZkB+MVZzbNn1Iw0167qv7qcK84RTWocrWbMg4BHnIIGBobwi0F4JXXuXg+k3EYXo9OiRufe4DETaegZh2fPap4/qzgzmCVwxjMf9mtWlaoZNT/rT1AzEt1SkJcjPgEDA0P4xbBlFBSFND5LkULi6t3j4hkvzLkONQHxAwxG4c0O+PFJzTvdiumU+AO0lldJrjSt/PhyxcrSuR1v045U39lOdm0FQU3QZwrjDQzhFwUeBcuKxCsfde330wPiyKvKW5iG4LVgKgEnLmleOKd47SJ0jCo8lpA9bYstv75SuuVsqRa7Phy4zJfgOvKStuj9HguqIoq8gHlADQzhF0fCW9BYLN7xkWkhWd+kJOOsKnv3FlaOhosjmu4JxQvnFOcHxfPu9bgONwfqCmDXMvjsOkVTyfwpuyATbE71i6RXyDEaiyW/3sDAEH4xbHhEdV9erOkZVzPZcXvaNQ80qivsZ78HIoGsKp6ypY31yLRmOiV/9Vgi1fOC0n76k6vhjmooy736BmJrqcXvm8pqDkU5UFcIQdPU0mCxBd1H+ctHArC1RsitERX9tVaRtpeHxApzYEVp1gHnaOiZUMRTamYT8Cgpdf2ThzT/1wPw8HIps72WtjA6DS+2aPons4MrlpeIhDcWvIGR8IuIkA82VkF1nub8kEIpGJhSfPeoVK/NVqlDfqlq29MGR3qymXJaS2lsdR48sRYeXwFNpQujatKGvRfhtQuKlC1mRsgHGys19YWG7gaG8Iur1ivxnN+/TNE94XaR1VLltu0CfHJVtrpNAesq4Bt3ap46oqReXUNBDmyo1DzcpNheK+r8QqC1VMT9pBn6p7J59MuLYVeDMiOoDAzhbwWKcmS4xFsdMhUWBQNRePoo1ObPbYaR44P7lipq88TuBnlPXaGiLPf60nInEvDUUc3+TrCUtMsK+eH+ZZKYY2BgCH+LpPyGSvh4E7SPyYgopeDEJfj2QU15WNEwy57OVMYtK5bf/Z537183j3znmdOKn7gDLywlMfimEs2vrFKm6YXBLYNJ3nTt88+uFSeb38NMgv3ui4r/+Aqc7NczSTGZTSLHHSB5PWTXWrrs/P1BxX9/S5J8Mm2xq/M1v7tdUVdg7oeBkfC3HJV58K92SJ/5Nzuydey7W0X9/nf3SJOK/MCNFdgk0tL19gcnZM7cZMKV7BrKw/Cvdih2NdyItmBgcB0arRk1lYWj4c0OzX/arTg9kJXmtiPJOI+sgHvrpctNYc7C5svF09K95kiPtMF6pwuiKQnh2RpKQ/DlzTI62iTaGBjCv8dI2uKl/x/vSAtr20F63jkSt28qgTtrYU2ZTJAtCUlYLuAV6ZxMC8knEtA3qWkfURzshgNuo0tHZyfSVkak//yvroWysIm7GxjCv2+kP9IDf39Q82qrIm1LUo7jtrQK+mTYxNIiib+HXHvea4ldHksJudtGZVx0LCWZeRmNIGlL2u0f3i1dchfcR8/AwBD+1iDtwIVheO4c/PA49E5eKYEVc2e9Z6Azr8uubCZJZ1ut5subFPcvMyWwBobwHxhoLRL7eB/8uFmzpw0m4tLQIqOaZ4ZSzP7M5YT3e6RwZlUZfGoV3FUPNflmlJSBIfwHEo4WFf38kJD/cA+0DsHwtLSrmn0FM9VuGZKXhWFTlWZ7rWJVmZgAJovOwBD+NiF+NCmx9I4xyc576qhmIi4y3lKSkPNAg3jxq/Pl97KwhPNutkHmdEqyAKNJaaPlIK2wgl4ozoXC4OL15LtexNMybjuakhCko2VtOT4ozTV+ig8KjKy5DlhKPPWRgHjYQz7459NSzw7Z3Pzf3S4e+4BXSH4zHNQIkfZ3QOuIdMYZj8voKwchVMgnE2pWlMDmKmgqfW/MBY3kLRzt0ZwbUrSNSHQilhLC53jFuVmdD43FmvUViuUlRsMxhL8N4bFEZQ/6pDw2M4pqJDq35fTN+A+SNrx0AX7WrDl5Sc201b5cJcv4EcJ+2XB2NcBjK6W7zq1I5NEaRuOSlPTieTh5STEcE0fn5fqiQqoAw37F0iLJY/jyJmn5ZZk4pCH8bUV6BSFfpuetPOz9UWgb1SwruvGnOe2INP/HI/ByC/RNKCGHu7M4GfE6m/BKRlO90y2FPfs64Msb4d4GFrVVVtqRKr+/fVuzt10xFM12/c04K2fW5m5EjiOTdA51w9kBONyj+Z3t0vIrxzT5MIS/bRwgKjstJoOxuMyHX1Z0Y8dM2HCwC/7+HdjbLh10PJZk5Tm22OuRoNjHlpL4fjQlqbogqnw0CfvapV1X/xQ8sQaKFiGLL5aSgZfffAv2tUuXXY+bn5B2xLSIBMRhaSnp+z+VkLUpJe+dTsGeNsXAFPzmVslDKDD2vSH87YLL1euJOLzRpri/QXLkrwe2hqM98N/egCO9bujPEjIVBGFlGawug5WlkuHn9Yg93zkGzZfgZD90joLHreDrHoe/OyDHfnLdzTnOkrZkC37rbZHU2lXVk7Y4KFeWSl+AphJFUUg2wsmk9P073qs4Oyj2fob454bgb96WDeuJNbJRGBjC33ZIO0KIPRfhM2uvz4buHoNv7RcNwZo1BWdzNXxmjWZrraIyIlLea2Xz/JO2SNGD3fCLs5IaPJWUQRaZ6bVlYfjY8htL9NEaWobg6SNwuJs5lYPbauGRJunhVxlRBH1C9uzaFCMx0QxePA+vXxQNRCnRQP7hsDgcH1hm8hIM4W9TDEbhJydF6q2rXJiXPpEWm31vO1l7HbizVvPHdys2VEoXnMsdXV43GhAJCPHWVkja7nePioT1WHBxGL53TP6+vvL6v89AFL5/XMyElDuLDw0PNcJv3yn9AUK+K0OCmbWFA1KNuL5CEo7+8Yio9kqJr+Jv3tasLFUsKTDPzq2G2VNvARwNR/rgr9+C84NXeq6vUOUdONyt+flpUetRcmO2VMP/ca9iS404t97Nqx3wQkMhfGMr/Nad4qzLZP4d6ZHRV0PR61fl97WL8zCaqd934MFGzR/dI115c/3Xjv8rxK6vL4Tf2Qaf3yC/Z/a1Iz2Kn50S9d7AEP62NOpTNrx2Ef7yTc2ZwWt/ZGwanj6qGIq5qjwSXvv9nRJXX4iqm7LFZh9PQHkEPrcBfmVV1jSYSsErF6Tsd7ZK/m4YjsJPmzW9E7KOZFq69/7BXYrVZQszWeJpWdtkUsZ7/dadcHf9rDoEBf90QtMxdqVPxMAQ/gMLj4LaAi1SGlF/d7cq/mKvOLymkvNL97OD0DwgmoHWIpkfWylkXwihppLw8gX48z3w1FGpv6+MwGfWiVS1HVlb57hmX7uedx1Xw8lLcG5QzYTcfB6R0GvKFmaqxFLw89PwX/bCU0ekHXd5WMZoV0b0jAYwGFW8cuHdtSEDQ/gPDHwe+NhyxfJiCacpV7q90QZ/thu+fRDODc6VsClHHFpDUTdJxc3W21kn4beFkP25s/AXe+Xndw7B8+fEMbamTJxhmdLcqYTiVL9iPL7w73SsT3wSHiV+ho1VIp29C0gTtjX8tBn+6k1Z27feVvzyvJgJayrgvgY1s6GlHTjQKecwMIS/LaCUhM3+8G7pPJsZHZV0JGT2vw7B/7Mbvrlfc6gHUo4mZcPFETeO7oasVpdzxcDJ+TCdEs/33x4Q51fakSKfU/0y4CLkh03VokZnJuv0TQqBFzJ7PjPkMp7OOhE3VokDbiHS/dkz0kikd0I2wKEYHO8VqV8cEg0m10280Rq6xqFvwqj1txLGS7/ICPrEe10ehm/ul/54aVse4vE4vNkOR3sVz5yGsrB0qD0/mLVnQz5Ykp8dOJlyJMZ+oEs2gS014iSLJYVQf71f7ONMpls4IF14Mx106go09QVwvE/hs2BgSuzlMwPqmsSylOTFnx5w5+U5QtJlRdnZ9kl3COaRHvH+b6wU52IiLWv75n7ZMDIIuxtQ2C8aQ3WeDO6cHJINKJaC7klpLGLa/xjC3x5SHol1b62B//SweOpfbhHpliFSJvusZSjrVMt44CMBKHUTdhwthPo3z0rGXHEIvrQJHl8p2Xh/sTc7xMLRsln8xmbNE6uzs/GKciRJx9YQsMTT/sxpxfNnry1JlXv+eFri+Slbkn9K3Rz4tCO5Bv/vXqkcDPk1/3qn4tEmePUC/N07WbI7Wkj+1c3wiZXZ4pnCHMmpPz/kakJpGJzKpuoaGMLfPraSkpjzv79PpPKzp6G5X2La2m2eMTu5BldCB31Z6Z524GSf5K77PNA9ITHslkE41pslu+2Won5hg+ZrWxQFs+bbh/yKUCDrDNNaJHBigXpzZn2ZtWVCcNGkbEadY6JtxFKKb70Np/tFG+maTfaA5PV/5Y65jTqDbqVfRj1JOdkUYQND+NsSRSEZWbW1Bt7uhKO90DkuhBiccsdbuTn5CrG1M/FonzvSuiRXbHKPq5I/f042g4xkD3jhV1fD17eqK3LmU7brQJy1sWTGWS+E7B6y1Xiz15bjFfW+IEe+g6Vkbc+czpowaNmovrhRmnVWXNao03bcGX3u5uNRpnTWEP5DgIBXstyq8uDjy0XK906Ig61jFP75jPSst5RIuOFolnBrKyWE9bcHRDJ7LHECZlRunyVts75xpxz/ckzEpaDHUm5YzYJlBRK2u5bjznKleMuwxM+Va9OPxuVzfi/srIdPDcF3j8l5LCV2fYbUSUfz1Y2Kr29xyX6Znj6RkByEmYfRI/n+Rp03hL/9bXsl2WVFocxceiHgYFRCda3DYHmE8D0TIkl9HrGbv7xJquieOirqc2ZaTdAHn14Fv70N6ovmz8TrGpdNxesW4VSEZSDmtlr1rtlxUwn4093wepsQvH9K0zEiXXz9Hpl7//WtoNB896hiIpEdp6215osb4fd2SK785afKNM/oHM9uPEGvvNcw3hD+Q0f+TFltflDi7nvbxEGWdkSqdo5JeyyFZM79i60inf/xiEjssB8+t06y1qry5yd72pEIQM+4bA7xtHSf2b5EUVe4gIVqaCzV7GmXg6dtydQbi0vITykh/b/coVAavnNUpHbQC59dB7+7Q1FzlRDeVEKcdROzcgJKczXLi5XhuyH8hxd+D2yoEsnfMyHSrrlPKt9q8sUcUEiY7SubpfnFgU4pqvnaHYryyNUFYueoVKdZVrZF9vIS6cizIFIp2FSpxIcQE43jnW7xQ5SHs1mAkQD89naIpWUI5/Yl8IUNMmV3Pi1Ca8k9eP2iOOpANJBttco0xDCE/5DfAEvmzq8sk6QYgMEYvHBes7FKsbI0q2KXR6T45NfWQ2muEo/5VY47Hpee+kd6RTNIa6jLh3vqNWH/wmXo5mpxzh2MyVqHYvCjkxLrr8nPvi8/B/7gbpHYJbmSUHM1kyGWkl6A5way0YP8gJTvmtl6txbm8n4AUOJ68v3u9pty4GC34nvHYGR6rl1dEJT8+PA1yB5PifT8cbObJQf4LalsW1dxfeOoy8PwUKMmPyhedb9HuvX+4ISo77PXVpQDdZm1XWNPef6sePMTdtb0uK9BTBujzhvCf+jh80h++v1LJaauEOfcz07BX+6Dkdhcj7q6usnNeByeOQP/fb+o9Mr1ztcXweOroCpyfWsLeuHBRsXWGrdqTwtRv3sU/ma/TORZ6NqStmgH3zogEYrM36vy4Nc2mP52RqX/CKE4JO2tzw2Jx95jicf+n05A15jmN7cq1pZLJd18au90SnwATx/V/PyMYjSWtZeLQmLv31t//b3xlZJcgN/cInkDzf1C6pFp+M4RcTB+ZbM0tyiYpy++dlNmO0bhJ83SkWcwmv2//CD8651iIpgutobwHx1VS0nnmD+4C/50t2YwKp1qE2nYc1G847saRBMoD2fr5rVL9tMDEs9vvpQNt2V6w39uneITK25cgopDTUj/V29C+5icfzoFr7bAiT6pH9jVIM7HTNhQKdE4jvVKu+3W4WzijtaStfflTfCJFWbGniH8R1S1v3+ZzK/79iFJxlFKPPMDU2KTP3dW8tkzTTEcLZrAWFzIlCG77UhK65Nr4UsbZTLNzSDghYeWyzn+5kA2UQglEvuHJ0V6l+ZmQ45KiZNvIuH209dZNb4gKE06Prde8hIMDOE/kigIyrz4wpA0tDw9kLXDbUfq36PJK+3j2bAdkbRf3CAStCpvcZxh+UH49BrIDcB/fUNKcq1ZabeTCYmvX2ttjpbv+Ls74FfXyAahjCpvCP9RRiQgKbjVEfjucZHq8XSWtNeqe/EouKNW8td3NYjnfDEJFfTBw01y3O8dh9dbpQKPBaxNAZsq4Wtb4MFG0UAM1w3hDRCbdlM1NJbAF9ZLXX3zJU3riCKWEtVau/a13wOlEdhUqdlZB2vLFcUhriv8dj3we2B7HawqhwvD0pb7cI/Y6LGkO3IqszYv1ORJN92tNbCuXJKIfB5zjw3hDebAUqJGb62FO2pERibcKa2dY5qkraiIiMqeFwSvK8rfCxXZo0TK31kDW6uzzsPeSUnlTdniXFxSCBF/dhyWkeiG8AYLJD+Ip31pEdQXqpnZbe83MkTO9UtRUGMxM10sDMEN4Q0WiWQf2LXN/GPwgRMc5hIYGBgJb3CD0Lf62FpCW7bbw95jZVtlfRCEqs6szbXzTfacIfyHyq72XjYverHHJWmkZdTotPSwG45Jks14XNpU5QYk3bYwR7rYlIWzJbXvBRy3R950Sl6TScn9T2soDIozMeSTjL+gTzYoswcYwt+W8HmkrDOT4+poIeNikmkgKoMs9ndKQ8uLI1K8MtNc0m2IWRKSUtbtS2DHEnGc3cr+cFrLptM+Kp1rhmKyGY1OZ0OGlpLNqCQXinOgLAINRdI0w5TBGsLfdvDP6sGmXRJkilZuFvG05KD/6CS82gpDbodapS6bNecSf2QaXmqRzjmbq+CTqyUVtjR38SWq7UgH3Xe6pGtNJrtu9qy4zDknEjLv7oKW61WTDzuXSP2/GQ9tCH/bSfiCWeOgbD138MKNqvBj0zLI4QfHZe6c7WRHO2V6tmdGNutZf7OUSP/9XVLFdrxP89vbFPWFi2dL21rSfd/skAEYtr6y1fblp8qsN+1kp+yMJ6RC7lqNMgwM4T9QyPVJMwqPBY4txDw/JGp42Q0Uq2TGLf3dOzKAcbbkVLg96/2QF9SUhKSRxUhMMxZXTLo59pm5dUNR+OEJRfso/PG9C59Cey2Mxd1W2z1iq8+QGTm2zyPddcIBd+BGUtT7lC1NPRzX/BiOybCKthG4d6lIfePcM4S/LSR8faE0lehwJftgVMZJfXrN9avSI9PwPw/CPx6WPnSZz+cHoKlUbPP7G2BZscLncSvptGIkJl1oXr6gOdanGI5KhZ1GbP+/2AP/fpeMgrpR23k6JSr8/s65rai9lmxuy4qhNl+6zua5Wk88BZemoHdC0zai6JmQ42jXZDnVL5vcoyukms9w/tbD8yd/8id/Yi7DTUDBmUFRVSHrUNtWK5lnC0XSlg43f/VWVqproCJXGkz84T3wSJMMcgx4ZbPJSNW8oNTSP9ioKApqBqaUDIxEEi16JmRdq8uZM5VmoUg70pjjQJfY5Bli5nhleOaDjeIwLI9IN1uPJa+AVxp71BeKWeHxyOcTaTfEqES1z/XLpmls+lsPc4lvEhVhWFvujkxyHVpHesR5ZjsLO4ZGVPnvHQPbzpK9OCR9379xp0jPhZgYT6xV/P5dsKnKdSYqsbP3tGlev8h1zYaf0TxiUhwzu1NNXgDuqpfGk7UF766SF+bAXXXwyHIJH2bMgWQa3u4Sf4CZGmsI/4FHwCsNGFeUZp1PA1PidGsZzjZ9eDd1+RdnpPLMstwpsH74zFp4cp1IzYUi6IV76mWjqC9yw3YWjMQUL57XdI1dH7GStkyv7RgVGzzjgNtYBdtrhcgLVcVzvKKJ7FiSDRkqJZGNQz1mNrwh/G2CVaVSvx5xielosXWfOgL90WsTTCPtqV9uEXJp1zdwV70Q/ka6wQS9Yut/bbM4+jJrOj2g2N8lG8xCMRSV2fbT6ezU2KWF4gTM8d/Y9VpRKlpRRoX3WDIwo21kYRukgSH8++68+8xakXoZ1TaRlgaUTx+VDLmrPcipNLzTKXZ2xuNdFZF5cU0lNx6yynHn1N9TL15yjyXkfafr+ia09k1Kgk1mll2uTyR0yU042UJ+2F6r5wyXTNiSxGP4bgh/W6A0F35vu1saOsvZ9a398M390g4qPY9NH0vLsIjRaWG7x5JsuW21Nx+qqs6Hh5drcnwa7WYCXhgSr7mzQGYNRUUjyMTRG4oXZrNfCwooDStWlYm5kfEL9E+x4HUZGMK/79hSI7Zz+aze72kN3z8Gf7FXYs+D0VmdWxGHWNd49m8BN9RXMiuO72hxto1OS8vn2dqCdrWJkZhIbvsywiwrVtQVqJnx0gNTcH5IzRBLuxtTIi2hstmv6bScM+3MChEGFydl12e5TTus7Dom4tIxx+DWwcThF/NiWvDYSlGBv3NEOr8oJOnkxfNwakAcXfc3iBc9HBAJGk1km0HmBecm7WgtavW+Nkl8qcoTb3dmDvxUQlpMtQxLeGv7EmgozJoCJSFNWa7iVD94vCKtx+PuhFdkkzjrDpy0LxsoYTuSX+BxHYlBDxQEsl1pbwZKiWMy15d11iVsycmPmJHRhvC3C8J++PwGIe63D4kzCi3hsQ630GR3qySobKvVpBzFQCxL0JBP5rRlkHQklfVgj2wK/VMi/bfWCCm6xsXDPeDm2uf6pGIu40DMDSjCgWzKa9KG6ZRGo0jacGYAXruYtdPnVQPd0F6eW/22WFlxuQE53qi7ASXdqsCl5jEyhL+dkBeQFsxL8uF/HRSyTsRdO9gWtX4wCqf7s9MkMiSy1GUSVGfVfY/KjmyaUcdtIWOm7DTlSNnsbLJmBkNkRLd2qZ1My0YRTbj/r+a3tzMn86jFbT7pvex4mVp6A0P42w5+D+ysg9Xlmn86rnjlgqjOsZQQ0tZZB9Xs9tOx1NyZ6T6P9InrHBWVtyRXSkw9btOLqjxYUSJFOwGvePYjgezno26veMvdLELebIVfwCsJPa3Dkt+u5mG67WRLXacSUtjjaFgM3k8mYHyaGde832uGUhjC3+YoCCq+vlVCWW92QsuQqPld4yKpbUekckYCTyVE+s+ugFtaBJ9aI/+XH5QMvIwJUBSSxJ/hqMTfyyNzVe6RaSFzRsrn+FzCK3GcNZWIdnBp8rLQoasZnO6HnknZYKbT4kdYLE/6VFJSbfWsTbI4x9jvhvAfAmfe+kpYVSZk7hwTW75jXAY0vt2ZzcXPDF4cj2dLb72Wm44amd++LsqR13y4OAJto1JeaztibmRm04HExNdVyNq4jPAKKYDpdefWO4i9nbBv3lOftOU7ppysQhHxz9VODAzhb2v4PKKCV+WJNM2UtJbmav7+oCKakBDY8UviTNux5OZV5oNdYiIEfZDSUoq6ZJ5y1KsVrpTkCrmTabG5L01IM47ITU6NmYjLxjdj1ijRXEwnnFsLc3nfJyiVlbZ31SkqwtmuOeeHJGY/FL3x46ccSe99oUXj84rPID8oKbHXUzFXHhHPv+M6BvujcKD7xopwMkjYcKxPc2FWrYGlxJ9g1HlD+A/3DVBStnpPvcbrtrCKp+CZ0/DC+SsHRy4EjoazA/DUUc2QO3Zaa3Hu3dtwfcU4lRGpdfd75BheS8KEp/uz0YLrXVvXGBzqVjOZh9rVPBpLTPcbQ/iPAEI+eHKdojrPDUspse2fOgJvtItdv1CkHam6e/oo7GtXMznw+UF4sFGzvPj6EmcCHhl1taQw23knbUvDjTMDbkOLBTrxUo74LvZcFGddhuy5Acn5zzP2uyH8R0XKryiFz64Tz3mGQOcG4a/fgufOZbPjroXplGTd/fVb8MwpNyXWjetvqdE82KjID16/6VERhvUVkhnouD3s+qckgejtTnFEXstzrxET4FS/NNpsG517/LXlkk5spPuth+l480G5ERbUFEiK67mh7PDF/ikhykRcHGWZTjeOziaqTKehf1JMgL98C/Z3SIaeR0lDjeUlmt/dBpuq1Q0lzngsSduNJqVfn+Nke9Z1jUvoL9NyK9PU0tGSjz+VkO9wqFvW1TeZbbyJFqLft1TCi4bw74HvSGtTgfxBgaPhxCX489elnVTaJZajRfJX5sEd1bCydFbRidu7/lC35tSATJdVs463pFDzx3fDYyvVTYXSnExOf3vWfleubyDTOrsgKGm9pWFZ73BUetqNxESdt51sNx8Lsdt3NWRzAQwM4T+SpD83CP/jHVF/JxPZ4YxaC2mcy6rlMum4mVBbZjZ7Uwn8yx3wcNPizIrXWnrQHeiUnvnjibmhe62zRTkZdX2mpfYs5Hgl7r+t1nSsNYQ3AKTH2zOnxFvfNipx8Ay5Z5MoQ7DMT68lsfO76qQ91rbaxSH7bCRtOHUJjvS5GYPpy9KEZ+UKzya/x421b6mRDromycYQ3mAWppKi2j93VnrBj7sdXxNpIZ2jxXYOeCQ5JuyXBhwPLYf7lmpq8tUtk55p1+N+zk0THp0Wmz3Tgz4TwvN75BUOQHmumCMrzNQZQ3iDq6v4PRNCrv5JuDAiv/eNa5K2oiwstn1dgfSaK4tIJl2O79avTWuJDEwkJHQ4FpdkoeGYbAgZm744JHn+YTd11tjrhvAGC0DKFoLFbbe3uzuvze/NTmd9P83htJOdNJMxL/yexS2pNTCENzAwWCCMcmVgYAhvYGBgCG9gYGAIb2BgYAhvYGBgCG9gYGAIb2BgYAhvYGBgCG9gYGAIb2BgYAhvYGBgCG9gYAhvYGBgCG9gYGAIb2BgYAhvYGBgCG9gYGAIb2BgYAhvYGBgCH8ltNaYxnwGpj3ju8N7Oy/ecTRjY2MMDA2RF4lQWlKCz+c1d/UjhnTa5lJ/P9HYNNWVFYRzc82g+Q864dO2jWPbeL1eLGthisfk1CQ/euYXHD1+iob6Wn71k5+gYWndgj//QUU8kWBkZBTH0ZSXlZpN7Fqbvta0tXfwD9/9IfF4gvvu2cHDD95HIGDG2nzgCG/bNp1dPQyNjDI9PU0ymSSUk0NJcTE11ZWEQjnX/HwsNs25lou0trXjODYjo+MsrV9ctW5waJhL/QNEwmGW1FZfsZlorenrH2BgYJDSkmIqKyuwbmIMquM49PZe4ufPvUQ8EedffPWLlJYUv8eak8PA0DB9l/oJh0LULanB7/d/MNV4x6G79xJnz7eitaZhaR2pVMoQ/oNG+Ol4nCPHTvLK7r10dveSTCVxHI3P56O6soJtWzayc/tWSoqLrnqMcG4um9avwe/zsmxpPdVV5QuS7m3tnVxs72RJbTUN9UvweK4+KeHkqbO88NJuVjQ18pUvfOaKB19rzaHDx3hp91523bODTz32CNZNSuTYdIyOzi5i09MkU6n3/N5MTUV5480DvL5vP0X5+fzWb36Z2pqqW3rOg4ePkUgmWbl8GSXXscEppVhSW80dG9eRdmzWrGoiJyfHMPuDRPhUKsXRYyf5wU9+zqW+AWpqqlhSU4XX66Grp4/zF1rp6bvE5FSUxx5+kIKC/HmPk5sb4rFHHuKenXcSDocpLMhHLUC6Hm8+zTO/eJFHP7aL2urKaxJ+enqa4ZFRJiYn53cKaYjGphkcHmZqKspiuA8VCo/Hg8fjRb0PxujA0DAnms8wMDDI8NAI3X19VFdXYKlbZyr94sVXmJyY4te/8CTFxUULuo8AlmVRV1vNV7/0WWzboaSk6Jr30xD+vVbBtKarp5dnX3iF0dFxPvbgfTy4627KSkvweCwu9Q/w6uv72PPGfvbtf4el9UvYesdGfF7vvDe7qLBgwUSf7eSJx+PYafvKWcbzSBDLY8nDfpX3WkrhsTwoy7ql9MxsOErdurPYtk1//wADg4MopdBozp2/wNqVK4hEwgtep9YapdSC15pMJIknEmhHX/f383q9VFVW3NC1yaz1Rv0+juNc1/fMfCbz/H7oCT8dj3Pi5BnaOrpYvbKRJ37lkTk26tL6Oh5/NIf+wSEOHznBsRPNrF29Al8kguM4TE5FGR0bx3HsGennaIfcUIiS4iK882wMjuPQPzDEdDyOpRQTE5MopZiYnKSrpxevxzMz2rggP0JhQcFNk0przeDQMNHYNCXFhUTC4Sv+f2x8gtGxcQoL8snPi1zxACg1632jY0Rj0ygFkXCY0pJicnKCi35/JianONdyAYC7tm2hu7ePo8ebuXfndiKRXK7m/tZaMz4xydjYONFojEQyQTAYpCA/n9KSIny+udMt4/EE/YODOLYDSpFMpcV3MDhIW3vnHDIXFxcSmqWmp9JpBgaGSCSTc1ZjeTwUFuST9y4bk9aayakpRkfHicWmSSQT5ObmEgmHKSrMv8JscxyHyckpRkbHyM+PkBeJMDo2zvjEJNFYlIDfT0F+PsVFRVd1sNqOw9jYOGPj40xMTGFZFqFQDgV5eRQXF75n5H/vCT8dp72zG9A0LWu4wiGlgPy8CBvXraG/f0DmnruSLZlKcfjocX7x4qvEYjEsZWF5LBzbYcO6NXz2iccpKiy44pzxRIJ/+snPOXv+Aj6vl9h0HIADh49x4vQ5lAKlJVLw8Qfu5fFPfBy/7+bGr6bTaV54aTfNZ87zmU99gu1bN19m1qQ5cPAIv3zldR752C523bOT4DyOpuGREX758mscO3mKeCKBpSxKSwq5964dbNu6ify8vEW9P2Pj45w9f5Fwboh77trO62/s58jxk/Re6mdJbfW8GypAR2c3e/bt5/jJ00xFo9iOg9fjYUltNfffexcb16+ZQ9runl7+7ttPE5ueRinF+MQkjmPz02dfwOfzuURWFBTk8fknP8Xa1Suzaxwb5zvf/xGdXT3iIFXg83rJz8/nkYd2sXPblmtK166eXva++TbHT55mcnIK23Hw+3zULalh57YtbFi3Zs6mkUylOHL8BL944VXu3nknK5saefaFV+jo7CKZTOLxemmoq+Wh++9h9aoVV9zHZDJJW3snu/e+RfOZc6Rdv4zl8bC8oZ5HP/4Ay5ctveq1va0Jn0gmGRoeJhDwU1VZPu97goEAd96xkZqqCkKh0MyDYilFJBJmSXUV8XgCy7IYHh3lQmsbg0ND2LZ9FZXboriokMqKcvx+HwMDQ8Smpwnl5FBeVorHnV9s2zZ5kcgVMkyhsCw17y6sLIWa5+9aa4ZHRunpu0QsNj2P6a+ZmJyip6ePiYkptKvmzT5ubDrOy6/tpaOzh4ryMixLMTI6RktrO2PjoqXce/d2AovkQU/bNv0Dg4yMjbG0rpbqqgpqqio5fOwEZ8+3sm7Nynk3mP6BQX7+3EscOnKMSCRM3ZIaAn4/45OTnD7bwuDQCLZts33r5hlJ7/f7KS8vJR5PoJQiFpsmlYaC/Dzy8vJmrKdIOHwFgXxeL1Xl5ViuKu3YDm0dXUSjl5iKRq/5HYdHRvnxM89x+OgJ8vMi1NZUEwj4GR0dp/n0OTq7epmYnGLXPTvIDYVmIgGTU1H6Lg1w7MQpWts66O8foKa6EtB09/Rx+NgJpuNxwuFcli9rmNEQtdZ09/bx8+de5Oy5C5SWlVBdWYHW0NPby+FjJxifmOS3vvYlqqsqP3yETyVTxBMJAv4AeVeRTpZlUVpSTHFRodjQLqF8Ph/rVq+icelSHO2gteZE82kGB4evqYIHAn5+5RMfJ5lK4VGK519+jedffJV1a1by2CMPzXmgcnKCV+y0Gs1UNEZ//wA+n2+OY047mqmpqXnP6/FYeD2eq67NshRerwfLUleoykopotEY3T19fOaTn2D1qiaUUgyPjPDiq3vY88Z+3nz7IHW1NTQtb1iczTiR4NSZ86RTaRrql5AbCrGiaRnhPSFaL7YxNj5xBeFTqRSHjhznRPMpSkuKeeKTj9LU2IDf72NiYooXXt7N7j1vsm//OyxftpTyslKUUlRWlPEbX/qcq70p/stf/g2Tk5N8/MH72LBuzZxnIRLOnXPOSF6EJz75KHY6DUqRTqd56vs/4WzLhWuqxqlUiiPHmjl05Dg11ZU8/shDrGxqxO/zMTw6xquvv8Ebbx3g9Tf2s2xpHSuWL5u5d5Zl4Q/4uXCxnS2bNvAbX/4clRUisM61XOCffvIsrW0dtLZ1sqSmhmAwMKMdXGzv5NTZ89QvqeXzT35q5nM9vX38/Bcv0XzmHK1tHVSUl91yh+N7TvgMUS2Phd/vm6X2pBgdG5sjpTWagD9AYUE+Hpc4wWBg5mLatk1uKBdlKa6VVamUoiA/+6CGXNs3Y/fnBIPvZpDT2tbO3337aVea67mSfHhs0dM6tdbkBAPcf+9dbLtz88ymVFRYgN/vp7unj7aOLrp7e1neuHRRHHnRqSgXWtsJ5gRpalxGTk6QmupKCvLzGBwaoau7l6qK8jn2+PjEJG0dnUxORXny04+zfesdM3ZsQX4+jz/yEMPDo/j9fiYmpygrLUEphc/nmxNy9Xk9WJZFfn4epSVFXCtVzmNZ5OdFshtVKikm2LvcgmhsmncOHyWUk8Ouu3ewY9uWGdMtPz8P/8cfYGBwiJYLbbRcuEhD/ZI59nw6naa6spzHHn6QxmX1M5tLbmg9Z85e4OXde+m7NMB0PJ59RtM2sWiMZDJFQWE+VRXl5LvPYiScS+QLES71D1BTVXFLnbHva1hOa7mds79fR1c3T33/x4yOjWNZFpalSKdtVjU18sVfe4KC/Px5j3MzRLueEFoikeTSwOBVPMypW3CNNDmhIOvWrJyjsluWRUV5GSuXN9LR2c1UNEYqnb5pn4PWmvbOboaGR6iurJiRNqFQDqtXreCl3Xs4dfa8qPWzzjU2PsHwyBiBQIBlDfVznFYiycv5xte+hNaavHkck/PdVK3fNXhy5YOwkA0tFqO7t4+y0mJWNC6bc80sy6K4sJDlyxo4f+Ei7Z3dpNM2s60l27aprqpkaf2SOd/D5/NRVVmOP+BnbHyc1KzciUDAT2lpCZFImJPNZ9m9Zx+bN64jGMwhN5RDdWU5tdWVtzz68j4SXs14n23bmaP+5gSDJEJJFIrJ6BS9ff0UFuRL+OxW7j4LWPPqVU18/jOfwuf1ztkmtHZ4+dU97N771iKvCyzLQ8AfuOJB8Hl9hMO5OI5DOpXGsW24ScLbts2Z8xeYmJxkZVMjnd09DA4P4zgOAb8fj2XR09PH2PiE+DncNUWjMSYmpygpmutJz95XD2WlJdfztW/oWi1o044nSKVS5IZyyM+PzBPe81BcVIjH4xVt8zK/itaaQMDvmmBzoynBYACfz4Nt23MeKY/HQ0P9EnZu28Kbb73DT//5BV55fR+VFeUsW7qEhvo6mpYvo/AquSa3PeG9Xg9ej4dkKkUsFpv5e011Fd/42pfkIbZtjp9o5oc/fVZ2evU+V0IoyM0JUVtdeUV4STsiua75cXVjD6m6xvEsy0KTiSPf/Fecikbpu9RPMpnkyPGTnDpzFpSFQpNKp4lNT9M/MEhXVy/VlRUzfg7HcaQGwudFWR/sipWZPAZLojvzXXGPR3Ip0mnnKjdJXfcdKy0p5vFHHqKqopzjJ08xODxCV3cPZ861EM7NZdvWTTz28EOUl5V8+Agf8PvJz8ujq6ePwaGRmb/7Z9l0yWSSQCCAc4vLHdV1PizzrUdrjXb0vHyWt+t5oweOdkgl09dchNbyviukseOQSiZRSh5QaxGI1t7ZTXdPL2WlJTQsrSPg989EDjTQe6mfru5eWts72Lxp3Qzh/X4fwWCA4ZFRUqn0Yuh/t+x+i0NMkUqlSSSS896T2HQcjSYcDi1aZqFlWZQUF3Hf3TvYvHEdIyOj9PUPcK6llRPNZ9i9Zx+1VVXsunfHFQLltid8MBiguqqC482naW3rJB5PzDg4ZtvL3T19TE8niETyrum5VDfAXu0m2aTT9i2ro/dYltw8DSOjY/PY/Ul6L11CXeWhUkqRSiUZHBqmqmJujUAsNk1PXz8+r5ecUM5NPySO49DW3snQ8CgP3X8Pjzx0P+Hc0IxEtB2Hg0eO8b0fPkNHRxfjE5Mz6nskHCY/P4+L7V2MDI9Qv6RmzrEnJ6d4+bV9KAVbNq2nuqpiXjs+k/GWtm/AfFugBhgMBggG/IyMjtLd20dlRfkccykRT9DV3YttO9RUVeHx3rzH3NGaZDKF49j4vD6Ki4ooKixg6dI6Nq5fS04wyPMvvcrJ02fYcseGW67av+e5feHcXNatXUVBfh7Np8/wxlsHmJicJJ1OYzsOU9EoZ89d4OjxZgIBH41Ll8xxWmmtRY10XJVLZdmu3QvsOM41nXn5eWFyc3K4cLGD/oEhYrFpOb9tz6Q93vyuLrar5bE40XyW4ZHRmXNEozGOHm/m6IlmyfK7yjM8MTnFS6/uYWBwiFQqTTqdZmoqypFjJzlx6gwF+fnk5+XddJbWyMioJEMpaFq+jKrKcgoK8iksLKCwsICS4iKW1FRTWlJMy8V2urp7Z65vcVEB5aUlKAv2vX2Q/oEhUuk0Wmump6c5fvIUz/3yFY4eP0kqnboqOYuKCpmOJ2hplfBfIpHAtm3XJtbzEslxnFlalyaTLjn7GZn92XA4zPq1qxkcGuHI0ZNc6h8g7a41Gotx5lwLp8+eJxQMsrSudt507hu5tt//0TP8xz/7rzz7/EtMTE6glMLr8eD3+QgEA4D8/l4YRO+5hLcsi8aGeu67azvPv7SbH/3sWdo7u1m+rB6/309nVzf7Dxymr3+AjevXsmnDujkhjv7BQfouDZC2bRRw7kIr6XSKifEJTjafIRIJ4zgOkXAuDUvr5g25NdTXUV5WwsX2Dv7h6R+yZnUTFWUlKGVRXVVJXW3NTDLODaumClatWM7eN9+mraOT73zvh9yxcT2WZdHZ1cPhYycoLSlhcGj4qgfweDz09F7i20/9gO1bN+P1eOjo6uHN/QdJpVJs2bSOFcuX3fQ96ezppeXCRSrKy6iunF8Cl5eWsKKxgY7OLtrbO9m0fg0+n49QKMTG9Ws5dfY87xw+RjKV4o6N6wiHw/T09rF7zz7i8WmaGhsoKym5aunw+tWrONF8hr373mZkZJTljUspyM/D5/OzbGkdxUWFM++NxxO0XGgl5ibtpFIpBoZGSKVs2ju7OHzsJLZt4/V6qK6spKK8FIDcUA47t93BkWMn2XfgILH4NJs3rCMcznUzBd9mdHScu3dspXFZ/aLExHNyghQXFTAwOMTzL+0mkUyyYvkyHO3Q1dXDgYNH8VgeVjQ1vms5+G3qpRc18IFddxNPJNi3/yCvvLaXvW/ux1IWCdd+33rHRh5+cBdVlVm1K5FKcuR4M//83EtEYzEsyyKdTpNIJIhFY/zvp3+AUhapVJoVyxv4na//OjkVVxK+bkktu+7eidZv0tHZTUvrRQkD2ja/+iuPUlNVOUN4x3FIJJKk0+mr+nDSti0SKZ2eeYtSimUNddy9YyuvvbGft94+xNHjzfh8Pgrz89i4YS0Bn48f/Pjnro2v50ivjKnzyEP3s2fffr73o2eIx+Ok0zYBv59tWzdx793b5+QX3AiSyRRdXb309vVz/707KS+dvzQ1Pz+PyspyFIpTZ89z/313UVpSjFKKNauaeOzhB3l5916OnzzN8ZOn3PuQIi8S4d67tnP/vXeRmxu66jq2bN5Aa1s7Z85f4NDRE7xz+JiEyooL+cZXvziH8GPj43z3hz+ju/eS+2zI9bJth1dee4O9+97G0ZpIbi6f+dQnZgivlKKpsYEnn3iMF195naPHmzl87CRey4Pt2ITDYe7ecScfe/AeimadLxPFSCQSpNLpq5pFyaT7nMy6l6GcHLZu3sjExCSHjp7gly+/xi9ffg3tHjOcG+KB+3ayeeO6W26/Ayj9PjUC01ozOjrG8ebTdHb3Mjk5RTqdJpybS21NNWtXr6C8rBTvLDsqlUrR0trOqTPnSCaToMhWKulsbzvHcSgrKWbHtjvIi8zvQZ+ejtPe0UVHVzcjo2MzquOG9atZu2rlzO5+vuUizWfOUlFWxp1bN12hgmutOXnqDKfPtrBieQPr166eIxnGJyY50Xya1rYOkskkeXkR6mqqaWpqZGhomCPHTrJuzUpWNDVKyE9rBgaHOHT0BOl0mrt33klvXz8tFy4yMjqG1+OlsrKcde71uVkplEgmOXuuhebT51izagUb1q6+qrf9YnsHh4+eJJgT5J4dd87ZbOKJBBfbOjjXctFNc3bICQZoWFrPmlVNFBbkX9P0kASmES52dNLb18/kVBS0JhIJs+POOygvK53jF9j75gHGxsdnhEEmmqNdB41GE/QHWL92Fcsb52YixqanaW/v4lxLK0MjI65GGKautpqm5csoKiyco+Gl0mlaL7Zz9HgzDUvr2Lp5w5zv4jia9o5Ojp5opqy0hE0b1hGetbk5jsPY+AQX2zvp6OxiZGQMR2tyQznULalh9comigoL3pM4/PtG+CyJ06TSKZLJFLZtEwgE8Pt9+LzeeS+Abduk0/Y141raNR2udozZN0Jaa2VCMJLqOju11rZt0raNpayrVkKl0za2ncbj8cxbAJFKp0mlUjhuQYnX68Xj8cj502k8Xu+cjSTzd+1GLxytSafSpO202H9e77t+t+vZeDPf0XvZOq689g5pOz0TVbn8/I7jkEqlpWmH1nItfb4F28Jaa2zHkc3X9aUo9z7OJpjWmlQqjdbOu9pVXo9n3k0xs9aMDe/xevC59+Vaz53lseb9PtnnRO7P5cfI+BXSaVt8GZrsOb3e96zrwftOeAMDg/fQh2YugYGBIbyBgYEhvIGBgSG8gYGBIbyBgYEhvIGBgSG8gYGBIbyBgYEhvIGBgSG8gYGBIbyBgYEhvIGBIbyBgYEhvIGBgSG8gYHB7YP/H0A2HvTTOx/LAAAAAElFTkSuQmCC;" vertex="1" parent="u-rjD8VXtElLnjHXe8je-1">
                    &#xa;
                    <mxGeometry x="480" y="71.81" width="132" height="96.38" as="geometry"/>
                    &#xa;
                </mxCell>
                &#xa;
                <mxCell id="u-rjD8VXtElLnjHXe8je-12" value="" style="shape=note;whiteSpace=wrap;html=1;backgroundOutline=1;darkOpacity=0.05;verticalAlign=top;labelBackgroundColor=#ffffff;" vertex="1" parent="u-rjD8VXtElLnjHXe8je-1">
                    &#xa;
                    <mxGeometry x="640" y="200" width="80" height="100" as="geometry"/>
                    &#xa;
                </mxCell>
                &#xa;
                <mxCell id="u-rjD8VXtElLnjHXe8je-13" value="&lt;font face=&quot;Comic Sans MS&quot; style=&quot;font-size: 18px&quot;&gt;artifacts&lt;/font&gt;" style="text;html=1;align=center;verticalAlign=middle;resizable=0;points=[];autosize=1;" vertex="1" parent="u-rjD8VXtElLnjHXe8je-1">
                    &#xa;
                    <mxGeometry x="635" y="320" width="90" height="20" as="geometry"/>
                    &#xa;
                </mxCell>
                &#xa;
                <mxCell id="u-rjD8VXtElLnjHXe8je-14" value="&lt;font face=&quot;Comic Sans MS&quot; style=&quot;font-size: 18px&quot;&gt;PDF&lt;/font&gt;" style="text;html=1;align=center;verticalAlign=middle;resizable=0;points=[];autosize=1;" vertex="1" parent="u-rjD8VXtElLnjHXe8je-1">
                    &#xa;
                    <mxGeometry x="655" y="240" width="50" height="20" as="geometry"/>
                    &#xa;
                </mxCell>
                &#xa;
                <mxCell id="u-rjD8VXtElLnjHXe8je-15" value="&lt;font face=&quot;Comic Sans MS&quot;&gt;&lt;span style=&quot;font-size: 24px&quot;&gt;slide.md&lt;/span&gt;&lt;/font&gt;" style="text;html=1;align=center;verticalAlign=middle;resizable=0;points=[];autosize=1;" vertex="1" parent="u-rjD8VXtElLnjHXe8je-1">
                    &#xa;
                    <mxGeometry x="55" y="30" width="110" height="20" as="geometry"/>
                    &#xa;
                </mxCell>
                &#xa;
            </root>
            &#xa;
        </mxGraphModel>
        &#xa;
    </diagram>
</mxfile>